<svg width="24" height="24" viewBox="0 0 24 24" fill="none" xmlns="http://www.w3.org/2000/svg">
<g clip-path="url(#clip0_97_139)">
<g filter="url(#filter0_d_97_139)">
<path fill-rule="evenodd" clip-rule="evenodd" d="M14 3C14 2.44772 13.5523 2 13 2C12.4477 2 12 2.44772 12 3V9.58579L9.70711 7.29289C9.31658 6.90237 8.68342 6.90237 8.29289 7.29289C7.90237 7.68342 7.90237 8.31658 8.29289 8.70711L12.2929 12.7071C12.6834 13.0976 13.3166 13.0976 13.7071 12.7071L17.7071 8.70711C18.0976 8.31658 18.0976 7.68342 17.7071 7.29289C17.3166 6.90237 16.6834 6.90237 16.2929 7.29289L14 9.58579V3ZM1 4C1 3.44772 1.44772 3 2 3H2.47241C3.82526 3 5.01074 3.90547 5.3667 5.21065L5.78295 6.73688L7.7638 14H18.236L20.2152 6.73709C20.3604 6.20423 20.9101 5.88998 21.4429 6.03518C21.9758 6.18038 22.29 6.73006 22.1448 7.26291L20.1657 14.5258C19.9285 15.3962 19.1381 16 18.236 16H8V17C8 17.5523 8.44772 18 9 18H16.5H18C18.5523 18 19 18.4477 19 19C19 19.212 18.934 19.4086 18.8215 19.5704C18.9366 19.8578 19 20.1715 19 20.5C19 21.8807 17.8807 23 16.5 23C15.1193 23 14 21.8807 14 20.5C14 20.3288 14.0172 20.1616 14.05 20H10.95C10.9828 20.1616 11 20.3288 11 20.5C11 21.8807 9.88071 23 8.5 23C7.11929 23 6 21.8807 6 20.5C6 19.863 6.23824 19.2816 6.63048 18.8402C6.23533 18.3321 6 17.6935 6 17V15.1339L3.85342 7.26312L3.43717 5.73688C3.31852 5.30182 2.92336 5 2.47241 5H2C1.44772 5 1 4.55228 1 4ZM16 20.5C16 20.2239 16.2239 20 16.5 20C16.7761 20 17 20.2239 17 20.5C17 20.7761 16.7761 21 16.5 21C16.2239 21 16 20.7761 16 20.5ZM8 20.5C8 20.2239 8.22386 20 8.5 20C8.77614 20 9 20.2239 9 20.5C9 20.7761 8.77614 21 8.5 21C8.22386 21 8 20.7761 8 20.5Z" fill="#0DC884"/>
</g>
</g>
<defs>
<filter id="filter0_d_97_139" x="-3" y="0" width="29.1802" height="29" filterUnits="userSpaceOnUse" color-interpolation-filters="sRGB">
<feFlood flood-opacity="0" result="BackgroundImageFix"/>
<feColorMatrix in="SourceAlpha" type="matrix" values="0 0 0 0 0 0 0 0 0 0 0 0 0 0 0 0 0 0 127 0" result="hardAlpha"/>
<feOffset dy="2"/>
<feGaussianBlur stdDeviation="2"/>
<feComposite in2="hardAlpha" operator="out"/>
<feColorMatrix type="matrix" values="0 0 0 0 0 0 0 0 0 0 0 0 0 0 0 0 0 0 0.2 0"/>
<feBlend mode="normal" in2="BackgroundImageFix" result="effect1_dropShadow_97_139"/>
<feBlend mode="normal" in="SourceGraphic" in2="effect1_dropShadow_97_139" result="shape"/>
</filter>
<clipPath id="clip0_97_139">
<rect width="24" height="24" fill="white"/>
</clipPath>
</defs>
</svg>
