<svg width="80" height="80" viewBox="0 0 80 80" fill="none" xmlns="http://www.w3.org/2000/svg">
<g clip-path="url(#clip0_43_415)">
<rect y="11.0002" width="80" height="58" fill="#D9D9D9"/>
<path fill-rule="evenodd" clip-rule="evenodd" d="M25 42.5002H51.465L41.1625 52.8002C40.185 53.7752 40.185 55.3752 41.1625 56.3502C42.1375 57.3252 43.72 57.3252 44.6975 56.3502L58.8375 42.1978C59.4375 41.5978 59.625 40.7777 59.4875 40.0002C59.625 39.2227 59.4375 38.4027 58.8375 37.8027L44.6975 23.6628C43.72 22.6853 42.1375 22.6853 41.1625 23.6628C40.185 24.6378 40.185 26.2203 41.1625 27.1978L51.465 37.5002H25C23.6175 37.5002 22.5 38.6202 22.5 40.0002C22.5 41.3827 23.6175 42.5002 25 42.5002ZM10 0.000244141H70C75.5225 0.000244141 80 4.47774 80 10.0002V70.0002C80 75.5252 75.5225 80.0002 70 80.0002H10C4.4775 80.0002 0 75.5252 0 70.0002V10.0002C0 4.47774 4.4775 0.000244141 10 0.000244141Z" fill="#162E44"/>
</g>
<defs>
<clipPath id="clip0_43_415">
<rect width="80" height="80" fill="white" transform="matrix(-1 0 0 1 80 0.000244141)"/>
</clipPath>
</defs>
</svg>
