<svg width="80" height="80" viewBox="0 0 80 80" fill="none" xmlns="http://www.w3.org/2000/svg">
<g clip-path="url(#clip0_43_420)">
<rect y="11.0002" width="80" height="58" fill="#D9D9D9"/>
<path fill-rule="evenodd" clip-rule="evenodd" d="M55 42.5002H28.535L38.8375 52.8002C39.815 53.7752 39.815 55.3752 38.8375 56.3502C37.8625 57.3252 36.28 57.3252 35.3025 56.3502L21.1625 42.1978C20.5625 41.5978 20.375 40.7777 20.5125 40.0002C20.375 39.2227 20.5625 38.4027 21.1625 37.8027L35.3025 23.6628C36.28 22.6853 37.8625 22.6853 38.8375 23.6628C39.815 24.6378 39.815 26.2203 38.8375 27.1978L28.535 37.5002H55C56.3825 37.5002 57.5 38.6202 57.5 40.0002C57.5 41.3827 56.3825 42.5002 55 42.5002ZM70 0.000244141H10C4.4775 0.000244141 0 4.47774 0 10.0002V70.0002C0 75.5252 4.4775 80.0002 10 80.0002H70C75.5225 80.0002 80 75.5252 80 70.0002V10.0002C80 4.47774 75.5225 0.000244141 70 0.000244141Z" fill="#183049"/>
</g>
<defs>
<clipPath id="clip0_43_420">
<rect width="80" height="80" fill="white" transform="translate(0 0.000244141)"/>
</clipPath>
</defs>
</svg>
