<svg width="1512" height="1313" viewBox="0 0 1512 1313" fill="none" xmlns="http://www.w3.org/2000/svg">
<g style="mix-blend-mode:color-burn" opacity="0.12" clip-path="url(#clip0_130_3)">
<rect width="1512" height="1313" fill="#E6EAF1"/>
<path d="M77.9442 1118.82C94.3927 1108 92.1956 1081.6 73.0529 1059.9C53.9004 1038.18 25.042 1029.36 8.60444 1040.18C2.71886 1044.07 -5.90426 1051.43 -13.3589 1055.06C-14.5958 1055.76 -15.906 1056.4 -17.349 1056.91C-18.7159 1057.4 -20.0985 1057.73 -21.4652 1058C-29.6085 1059.94 -41.6311 1059.89 -48.887 1060.68C-69.1365 1062.9 -82.2341 1086.77 -78.152 1113.98C-74.0756 1141.19 -54.3512 1161.46 -34.1165 1159.24C-19.0033 1157.58 -7.92026 1143.86 -4.92923 1125.71C1.01393 1124.77 7.04322 1123.29 13.0597 1121.15C19.1442 1118.98 24.5533 1115.98 29.6002 1113.01C46.5078 1124 65.675 1126.89 77.9442 1118.82Z" fill="#808BB8"/>
<path d="M19.8667 1057.43C18.048 1053.59 20.1571 1049.21 24.5783 1047.63C29.01 1046.05 34.0505 1047.89 35.8687 1051.73C37.6819 1055.57 35.5777 1059.96 31.152 1061.53C26.7252 1063.1 21.6808 1061.27 19.8667 1057.43ZM20.8648 1082.88C16.444 1084.46 11.3937 1082.63 9.58486 1078.79C7.76819 1074.95 9.87722 1070.57 14.2971 1068.99C18.7228 1067.41 23.7683 1069.24 25.5863 1073.09C27.406 1076.92 25.292 1081.31 20.8648 1082.88ZM-24.4735 1098.95L-35.0664 1102.72L-30.7238 1111.92C-29.8891 1113.68 -30.8592 1115.69 -32.8801 1116.42L-41.3629 1119.44C-43.3951 1120.16 -45.7104 1119.32 -46.5402 1117.56L-50.8877 1108.36L-61.4797 1112.13C-63.5065 1112.86 -65.8286 1112.01 -66.6619 1110.25L-70.1381 1102.89C-70.968 1101.13 -70.0023 1099.11 -67.9716 1098.4L-57.3788 1094.63L-61.7227 1085.42C-62.561 1083.66 -61.5869 1081.65 -59.5611 1080.92L-51.0837 1077.91C-49.0514 1077.18 -46.7331 1078.03 -45.9048 1079.79L-41.5573 1088.98L-30.964 1085.2C-28.9338 1084.49 -26.6155 1085.33 -25.7887 1087.09L-22.3069 1094.45C-21.4786 1096.21 -22.4427 1098.23 -24.4735 1098.95ZM68.0129 1051.15C48.8604 1029.43 20.002 1020.61 3.56443 1031.43C-2.32116 1035.32 -10.9443 1042.68 -18.3994 1046.3C-19.6358 1047 -20.946 1047.65 -22.3891 1048.16C-23.7559 1048.65 -25.1385 1048.98 -26.5052 1049.24C-34.6485 1051.18 -46.6711 1051.14 -53.927 1051.93C-74.1766 1054.15 -87.2746 1078.01 -83.192 1105.23C-79.1156 1132.44 -59.3912 1152.7 -39.1565 1150.48C-24.0433 1148.83 -12.9602 1135.11 -9.96926 1116.96C-4.02609 1116.02 2.0032 1114.54 8.0197 1112.4C14.1042 1110.23 19.5132 1107.23 24.5602 1104.25C41.4677 1115.25 60.635 1118.14 72.9042 1110.06C89.3526 1099.24 87.1556 1072.85 68.0129 1051.15ZM45.4757 1091.87C41.0558 1093.44 36.0094 1091.61 34.1961 1087.77C32.384 1083.93 34.4915 1079.55 38.9123 1077.97C43.3386 1076.39 48.385 1078.23 50.2022 1082.07C52.0168 1085.91 49.9078 1090.29 45.4757 1091.87ZM55.7432 1070.46C51.3174 1072.04 46.2725 1070.2 44.4544 1066.36C42.6397 1062.52 44.7586 1058.14 49.1754 1056.56C53.6017 1054.99 58.6471 1056.82 60.4603 1060.66C62.2745 1064.5 60.1655 1068.88 55.7432 1070.46Z" fill="#313131"/>
<path d="M219.208 1113.98C215.126 1086.77 228.224 1062.9 248.473 1060.68C255.728 1059.89 267.751 1059.94 275.895 1058C277.262 1057.73 278.641 1057.4 280.011 1056.91C281.451 1056.4 282.764 1055.76 284 1055.06C291.456 1051.43 300.079 1044.07 305.964 1040.18C322.402 1029.36 351.26 1038.18 370.412 1059.9C389.555 1081.6 391.753 1108 375.304 1118.82C363.035 1126.89 343.868 1124 326.96 1113.01C321.914 1115.98 316.504 1118.98 310.42 1121.15C304.403 1123.29 298.374 1124.77 292.431 1125.71C289.44 1143.86 278.357 1157.58 263.243 1159.24C243.009 1161.46 223.285 1141.19 219.208 1113.98Z" fill="#808BB8"/>
<path d="M327.306 1057.43C325.488 1053.59 327.597 1049.21 332.018 1047.63C336.45 1046.05 341.49 1047.89 343.308 1051.73C345.122 1055.57 343.017 1059.96 338.592 1061.53C334.165 1063.1 329.121 1061.27 327.306 1057.43ZM328.304 1082.88C323.884 1084.46 318.834 1082.63 317.025 1078.79C315.208 1074.95 317.317 1070.57 321.737 1068.99C326.162 1067.41 331.209 1069.24 333.026 1073.09C334.846 1076.92 332.732 1081.31 328.304 1082.88ZM282.966 1098.95L272.373 1102.72L276.716 1111.92C277.552 1113.68 276.58 1115.69 274.559 1116.42L266.077 1119.44C264.044 1120.16 261.73 1119.32 260.899 1117.56L256.552 1108.36L245.961 1112.13C243.933 1112.86 241.611 1112.01 240.778 1110.25L237.302 1102.89C236.472 1101.13 237.437 1099.11 239.468 1098.4L250.061 1094.63L245.718 1085.42C244.878 1083.66 245.852 1081.65 247.879 1080.92L256.356 1077.91C258.388 1077.18 260.707 1078.03 261.534 1079.79L265.883 1088.98L276.475 1085.2C278.507 1084.49 280.824 1085.33 281.652 1087.09L285.133 1094.45C285.961 1096.21 284.997 1098.23 282.966 1098.95ZM375.452 1051.15C356.3 1029.43 327.442 1020.61 311.005 1031.43C305.119 1035.32 296.496 1042.68 289.04 1046.3C287.804 1047 286.491 1047.64 285.051 1048.16C283.681 1048.64 282.302 1048.98 280.935 1049.24C272.791 1051.18 260.768 1051.14 253.513 1051.93C233.264 1054.15 220.165 1078.01 224.248 1105.23C228.325 1132.44 248.049 1152.7 268.283 1150.48C283.397 1148.83 294.48 1135.11 297.471 1116.96C303.414 1116.02 309.443 1114.54 315.46 1112.4C321.544 1110.23 326.954 1107.23 332 1104.25C348.908 1115.25 368.075 1118.14 380.344 1110.06C396.793 1099.24 394.595 1072.85 375.452 1051.15ZM352.916 1091.87C348.496 1093.44 343.45 1091.61 341.636 1087.77C339.823 1083.93 341.931 1079.55 346.353 1077.97C350.779 1076.39 355.825 1078.23 357.642 1082.07C359.457 1085.91 357.347 1090.29 352.916 1091.87ZM363.184 1070.46C358.757 1072.04 353.712 1070.2 351.894 1066.36C350.08 1062.52 352.198 1058.14 356.615 1056.56C361.042 1054.99 366.087 1056.82 367.9 1060.66C369.714 1064.5 367.605 1068.88 363.184 1070.46Z" fill="#313131"/>
<path d="M677.853 1059.9C658.7 1038.18 629.842 1029.36 613.404 1040.18C607.519 1044.07 598.896 1051.43 591.44 1055.06C590.204 1055.76 588.891 1056.4 587.451 1056.91C586.081 1057.4 584.702 1057.73 583.335 1058C575.191 1059.94 563.168 1059.89 555.913 1060.68C535.664 1062.9 522.566 1086.77 526.648 1113.98C530.724 1141.19 550.449 1161.46 570.683 1159.24C585.797 1157.58 596.88 1143.86 599.871 1125.71C605.814 1124.77 611.843 1123.29 617.86 1121.15C623.944 1118.98 629.354 1115.98 634.4 1113.01C651.308 1124 670.475 1126.89 682.744 1118.82C699.193 1108 696.995 1081.6 677.853 1059.9Z" fill="#808BB8"/>
<path d="M624.667 1057.43C622.848 1053.59 624.958 1049.21 629.379 1047.63C633.81 1046.05 638.85 1047.89 640.669 1051.73C642.482 1055.57 640.377 1059.96 635.952 1061.53C631.525 1063.1 626.481 1061.27 624.667 1057.43ZM625.664 1082.88C621.244 1084.46 616.194 1082.63 614.385 1078.79C612.568 1074.95 614.677 1070.57 619.097 1068.99C623.522 1067.41 628.569 1069.24 630.386 1073.09C632.206 1076.92 630.092 1081.31 625.664 1082.88ZM580.326 1098.95L569.733 1102.72L574.076 1111.92C574.912 1113.68 573.94 1115.69 571.919 1116.42L563.437 1119.44C561.404 1120.16 559.09 1119.32 558.259 1117.56L553.912 1108.36L543.321 1112.13C541.294 1112.86 538.971 1112.01 538.139 1110.25L534.662 1102.89C533.832 1101.13 534.798 1099.11 536.828 1098.4L547.421 1094.63L543.078 1085.42C542.239 1083.66 543.213 1081.65 545.239 1080.92L553.716 1077.91C555.748 1077.18 558.067 1078.03 558.896 1079.79L563.243 1088.98L573.836 1085.2C575.867 1084.49 578.184 1085.33 579.012 1087.09L582.493 1094.45C583.322 1096.21 582.357 1098.23 580.326 1098.95ZM672.814 1051.15C653.66 1029.43 624.803 1020.61 608.365 1031.43C602.479 1035.32 593.856 1042.68 586.4 1046.3C585.164 1047 583.851 1047.64 582.411 1048.16C581.042 1048.64 579.662 1048.98 578.295 1049.24C570.151 1051.18 558.128 1051.14 550.873 1051.93C530.624 1054.15 517.526 1078.01 521.609 1105.23C525.685 1132.44 545.409 1152.7 565.643 1150.48C580.757 1148.83 591.84 1135.11 594.831 1116.96C600.774 1116.02 606.803 1114.54 612.82 1112.4C618.905 1110.23 624.314 1107.23 629.36 1104.25C646.268 1115.25 665.435 1118.14 677.704 1110.06C694.153 1099.24 691.956 1072.85 672.814 1051.15ZM650.276 1091.87C645.856 1093.44 640.81 1091.61 638.996 1087.77C637.183 1083.93 639.291 1079.55 643.713 1077.97C648.139 1076.39 653.185 1078.23 655.002 1082.07C656.817 1085.91 654.707 1090.29 650.276 1091.87ZM660.544 1070.46C656.117 1072.04 651.072 1070.2 649.254 1066.36C647.44 1062.52 649.558 1058.14 653.975 1056.56C658.402 1054.99 663.447 1056.82 665.26 1060.66C667.074 1064.5 664.965 1068.88 660.544 1070.46Z" fill="#313131"/>
<path d="M853.273 1060.68C860.528 1059.89 872.551 1059.94 880.695 1058C882.062 1057.73 883.441 1057.4 884.811 1056.91C886.253 1056.4 887.564 1055.76 888.8 1055.06C896.256 1051.43 904.879 1044.07 910.765 1040.18C927.203 1029.36 956.06 1038.18 975.212 1059.9C994.355 1081.6 996.553 1108 980.104 1118.82C967.835 1126.89 948.668 1124 931.76 1113.01C926.714 1115.98 921.304 1118.98 915.22 1121.15C909.203 1123.29 903.174 1124.77 897.231 1125.71C894.24 1143.86 883.157 1157.58 868.043 1159.24C847.809 1161.46 828.085 1141.19 824.009 1113.98C819.926 1086.77 833.024 1062.9 853.273 1060.68Z" fill="#808BB8"/>
<path d="M932.106 1057.43C930.288 1053.59 932.397 1049.21 936.817 1047.63C941.25 1046.05 946.29 1047.89 948.108 1051.73C949.921 1055.57 947.817 1059.96 943.392 1061.53C938.965 1063.1 933.921 1061.27 932.106 1057.43ZM933.104 1082.88C928.684 1084.46 923.634 1082.63 921.825 1078.79C920.008 1074.95 922.117 1070.57 926.537 1068.99C930.962 1067.41 936.009 1069.24 937.825 1073.09C939.646 1076.92 937.532 1081.31 933.104 1082.88ZM887.766 1098.95L877.173 1102.72L881.516 1111.92C882.351 1113.68 881.38 1115.69 879.359 1116.42L870.877 1119.44C868.844 1120.16 866.53 1119.32 865.699 1117.56L861.352 1108.36L850.761 1112.13C848.733 1112.86 846.411 1112.01 845.578 1110.25L842.102 1102.89C841.272 1101.13 842.238 1099.11 844.268 1098.4L854.861 1094.63L850.518 1085.42C849.678 1083.66 850.652 1081.65 852.678 1080.92L861.156 1077.91C863.188 1077.18 865.507 1078.03 866.336 1079.79L870.683 1088.98L881.275 1085.2C883.307 1084.49 885.624 1085.33 886.452 1087.09L889.933 1094.45C890.761 1096.21 889.797 1098.23 887.766 1098.95ZM980.252 1051.15C961.1 1029.43 932.242 1020.61 915.804 1031.43C909.919 1035.32 901.296 1042.68 893.84 1046.3C892.604 1047 891.291 1047.64 889.851 1048.16C888.481 1048.64 887.102 1048.98 885.735 1049.24C877.591 1051.18 865.568 1051.14 858.313 1051.93C838.064 1054.15 824.965 1078.01 829.048 1105.23C833.125 1132.44 852.849 1152.7 873.083 1150.48C888.197 1148.83 899.28 1135.11 902.271 1116.96C908.214 1116.02 914.243 1114.54 920.26 1112.4C926.344 1110.23 931.754 1107.23 936.8 1104.25C953.708 1115.25 972.875 1118.14 985.144 1110.06C1001.59 1099.24 999.395 1072.85 980.252 1051.15ZM957.716 1091.87C953.296 1093.44 948.249 1091.61 946.436 1087.77C944.623 1083.93 946.731 1079.55 951.153 1077.97C955.579 1076.39 960.625 1078.23 962.442 1082.07C964.257 1085.91 962.147 1090.29 957.716 1091.87ZM967.984 1070.46C963.557 1072.04 958.512 1070.2 956.694 1066.36C954.88 1062.52 956.998 1058.14 961.415 1056.56C965.842 1054.99 970.887 1056.82 972.7 1060.66C974.514 1064.5 972.405 1068.88 967.984 1070.46Z" fill="#313131"/>
<path d="M1218.2 1040.18C1212.32 1044.07 1203.7 1051.43 1196.24 1055.06C1195 1055.76 1193.69 1056.4 1192.25 1056.91C1190.88 1057.4 1189.5 1057.73 1188.13 1058C1179.99 1059.94 1167.97 1059.89 1160.71 1060.68C1140.46 1062.9 1127.37 1086.77 1131.45 1113.98C1135.52 1141.19 1155.25 1161.46 1175.48 1159.24C1190.6 1157.58 1201.68 1143.86 1204.67 1125.71C1210.61 1124.77 1216.64 1123.29 1222.66 1121.15C1228.74 1118.98 1234.15 1115.98 1239.2 1113.01C1256.11 1124 1275.27 1126.89 1287.54 1118.82C1303.99 1108 1301.79 1081.6 1282.65 1059.9C1263.5 1038.18 1234.64 1029.36 1218.2 1040.18Z" fill="#808BB8"/>
<path d="M1229.47 1057.43C1227.65 1053.59 1229.76 1049.21 1234.18 1047.63C1238.61 1046.05 1243.65 1047.89 1245.47 1051.73C1247.28 1055.57 1245.18 1059.96 1240.75 1061.53C1236.32 1063.1 1231.28 1061.27 1229.47 1057.43ZM1230.46 1082.88C1226.04 1084.46 1220.99 1082.63 1219.18 1078.79C1217.37 1074.95 1219.48 1070.57 1223.9 1068.99C1228.32 1067.41 1233.37 1069.24 1235.19 1073.09C1237.01 1076.92 1234.89 1081.31 1230.46 1082.88ZM1185.13 1098.95L1174.53 1102.72L1178.88 1111.92C1179.71 1113.68 1178.74 1115.69 1176.72 1116.42L1168.24 1119.44C1166.2 1120.16 1163.89 1119.32 1163.06 1117.56L1158.71 1108.36L1148.12 1112.13C1146.09 1112.86 1143.77 1112.01 1142.94 1110.25L1139.46 1102.89C1138.63 1101.13 1139.6 1099.11 1141.63 1098.4L1152.22 1094.63L1147.88 1085.42C1147.04 1083.66 1148.01 1081.65 1150.04 1080.92L1158.52 1077.91C1160.55 1077.18 1162.87 1078.03 1163.7 1079.79L1168.04 1088.98L1178.64 1085.2C1180.67 1084.49 1182.98 1085.33 1183.81 1087.09L1187.29 1094.45C1188.12 1096.21 1187.16 1098.23 1185.13 1098.95ZM1277.61 1051.15C1258.46 1029.43 1229.6 1020.61 1213.16 1031.43C1207.28 1035.32 1198.66 1042.68 1191.2 1046.3C1189.96 1047 1188.65 1047.64 1187.21 1048.16C1185.84 1048.64 1184.46 1048.98 1183.09 1049.24C1174.95 1051.18 1162.93 1051.14 1155.67 1051.93C1135.42 1054.15 1122.33 1078.01 1126.41 1105.23C1130.48 1132.44 1150.21 1152.7 1170.44 1150.48C1185.56 1148.83 1196.64 1135.11 1199.63 1116.96C1205.57 1116.02 1211.6 1114.54 1217.62 1112.4C1223.7 1110.23 1229.11 1107.23 1234.16 1104.25C1251.07 1115.25 1270.23 1118.14 1282.5 1110.06C1298.95 1099.24 1296.75 1072.85 1277.61 1051.15ZM1255.08 1091.87C1250.66 1093.44 1245.61 1091.61 1243.8 1087.77C1241.98 1083.93 1244.09 1079.55 1248.51 1077.97C1252.94 1076.39 1257.99 1078.23 1259.8 1082.07C1261.61 1085.91 1259.51 1090.29 1255.08 1091.87ZM1265.34 1070.46C1260.92 1072.04 1255.87 1070.2 1254.05 1066.36C1252.24 1062.52 1254.36 1058.14 1258.78 1056.56C1263.2 1054.99 1268.25 1056.82 1270.05 1060.66C1271.87 1064.5 1269.76 1068.88 1265.34 1070.46Z" fill="#313131"/>
<path d="M1455.55 1060.68C1462.81 1059.89 1474.83 1059.94 1482.97 1058C1484.34 1057.73 1485.73 1057.4 1487.09 1056.91C1488.54 1056.4 1489.85 1055.76 1491.08 1055.06C1498.53 1051.43 1507.16 1044.07 1513.05 1040.18C1529.48 1029.36 1558.34 1038.18 1577.49 1059.9C1596.63 1081.6 1598.83 1108 1582.38 1118.82C1570.11 1126.89 1550.95 1124 1534.04 1113.01C1529 1115.98 1523.58 1118.98 1517.49 1121.15C1511.48 1123.29 1505.45 1124.77 1499.51 1125.71C1496.51 1143.86 1485.44 1157.58 1470.32 1159.24C1450.08 1161.46 1430.36 1141.19 1426.28 1113.98C1422.2 1086.77 1435.3 1062.9 1455.55 1060.68Z" fill="#808BB8"/>
<path d="M1534.39 1057.43C1532.56 1053.59 1534.68 1049.21 1539.1 1047.63C1543.53 1046.05 1548.57 1047.89 1550.39 1051.73C1552.21 1055.57 1550.1 1059.96 1545.67 1061.53C1541.24 1063.1 1536.2 1061.27 1534.39 1057.43ZM1535.39 1082.88C1530.96 1084.46 1525.91 1082.63 1524.11 1078.79C1522.29 1074.95 1524.4 1070.57 1528.82 1068.99C1533.24 1067.41 1538.28 1069.24 1540.11 1073.09C1541.92 1076.92 1539.81 1081.31 1535.39 1082.88ZM1490.05 1098.95L1479.45 1102.72L1483.8 1111.92C1484.63 1113.68 1483.66 1115.69 1481.63 1116.42L1473.15 1119.44C1471.13 1120.16 1468.81 1119.32 1467.98 1117.56L1463.63 1108.36L1453.04 1112.13C1451.02 1112.86 1448.7 1112.01 1447.85 1110.25L1444.38 1102.89C1443.56 1101.13 1444.51 1099.11 1446.54 1098.4L1457.14 1094.63L1452.79 1085.42C1451.96 1083.66 1452.93 1081.65 1454.96 1080.92L1463.44 1077.91C1465.47 1077.18 1467.79 1078.03 1468.62 1079.79L1472.97 1088.98L1483.56 1085.2C1485.59 1084.49 1487.91 1085.33 1488.73 1087.09L1492.22 1094.45C1493.04 1096.21 1492.08 1098.23 1490.05 1098.95ZM1582.53 1051.15C1563.38 1029.43 1534.52 1020.61 1518.09 1031.43C1512.2 1035.32 1503.57 1042.68 1496.12 1046.3C1494.89 1047 1493.58 1047.65 1492.13 1048.16C1490.77 1048.65 1489.38 1048.98 1488.01 1049.24C1479.87 1051.18 1467.85 1051.14 1460.59 1051.93C1440.34 1054.15 1427.24 1078.01 1431.32 1105.23C1435.4 1132.44 1455.12 1152.7 1475.36 1150.48C1490.48 1148.83 1501.55 1135.11 1504.55 1116.96C1510.49 1116.02 1516.52 1114.54 1522.53 1112.4C1528.62 1110.23 1534.04 1107.23 1539.08 1104.25C1555.99 1115.25 1575.15 1118.14 1587.42 1110.06C1603.87 1099.24 1601.67 1072.85 1582.53 1051.15ZM1559.99 1091.87C1555.57 1093.44 1550.53 1091.61 1548.72 1087.77C1546.9 1083.93 1549.01 1079.55 1553.43 1077.97C1557.86 1076.39 1562.9 1078.23 1564.72 1082.07C1566.53 1085.91 1564.43 1090.29 1559.99 1091.87ZM1570.26 1070.46C1565.84 1072.04 1560.79 1070.2 1558.97 1066.36C1557.16 1062.52 1559.28 1058.14 1563.7 1056.56C1568.12 1054.99 1573.17 1056.82 1574.97 1060.66C1576.79 1064.5 1574.69 1068.88 1570.26 1070.46Z" fill="#313131"/>
<path d="M177.535 1278.23C170.153 1277.84 158.086 1278.54 149.712 1277.07C148.248 1276.9 146.772 1276.65 145.296 1276.21C143.888 1275.82 142.592 1275.28 141.358 1274.72C133.726 1271.57 124.642 1264.74 118.547 1261.22C101.528 1251.44 73.6795 1262.13 56.3471 1285.08C39.005 1308.02 38.7559 1334.54 55.7644 1344.33C68.4638 1351.62 87.1734 1347.49 103.065 1335.42C108.277 1338.08 113.957 1340.37 120.128 1342.15C126.369 1343.95 132.723 1344.74 138.787 1345.33C143.354 1363.24 155.717 1376.29 171.079 1377.12C191.683 1378.21 209.827 1356.95 211.604 1329.66C213.384 1302.35 198.124 1279.32 177.535 1278.23Z" fill="#808BB8"/>
<path d="M430.372 1261.22C436.466 1264.74 445.55 1271.57 453.183 1274.72C454.415 1275.28 455.714 1275.81 457.12 1276.21C458.598 1276.64 460.073 1276.9 461.537 1277.07C469.909 1278.54 481.976 1277.84 489.36 1278.23C509.947 1279.32 525.207 1302.35 523.429 1329.66C521.65 1356.95 503.507 1378.21 482.902 1377.12C467.541 1376.29 455.177 1363.24 450.61 1345.33C444.548 1344.74 438.194 1343.95 431.952 1342.15C425.782 1340.37 420.102 1338.08 414.889 1335.42C398.998 1347.49 380.288 1351.62 367.589 1344.33C350.58 1334.54 350.829 1308.02 368.172 1285.08C385.503 1262.13 413.352 1251.44 430.372 1261.22Z" fill="#808BB8"/>
<path d="M811.264 1278.23C803.881 1277.84 791.814 1278.54 783.44 1277.07C781.976 1276.9 780.503 1276.64 779.024 1276.21C777.619 1275.81 776.32 1275.28 775.086 1274.72C767.455 1271.57 758.37 1264.74 752.275 1261.22C735.257 1251.44 707.408 1262.13 690.075 1285.08C672.733 1308.02 672.483 1334.54 689.492 1344.33C702.192 1351.62 720.901 1347.49 736.794 1335.42C742.005 1338.08 747.685 1340.37 753.857 1342.15C760.097 1343.95 766.452 1344.74 772.515 1345.33C777.082 1363.24 789.445 1376.29 804.807 1377.12C825.411 1378.21 843.555 1356.95 845.333 1329.66C847.112 1302.35 831.852 1279.32 811.264 1278.23Z" fill="#808BB8"/>
<path d="M1064.1 1261.22C1070.2 1264.74 1079.28 1271.57 1086.91 1274.72C1088.14 1275.28 1089.44 1275.81 1090.85 1276.21C1092.33 1276.64 1093.8 1276.9 1095.27 1277.07C1103.64 1278.54 1115.7 1277.84 1123.09 1278.23C1143.68 1279.32 1158.94 1302.35 1157.16 1329.66C1155.38 1356.95 1137.24 1378.21 1116.63 1377.12C1101.27 1376.29 1088.91 1363.24 1084.34 1345.33C1078.28 1344.74 1071.92 1343.95 1065.68 1342.15C1059.51 1340.37 1053.83 1338.08 1048.62 1335.42C1032.73 1347.49 1014.02 1351.62 1001.32 1344.33C984.308 1334.54 984.558 1308.02 1001.9 1285.08C1019.23 1262.13 1047.08 1251.44 1064.1 1261.22Z" fill="#808BB8"/>
<path d="M1444.99 1278.23C1437.61 1277.84 1425.54 1278.54 1417.17 1277.07C1415.71 1276.9 1414.22 1276.65 1412.75 1276.21C1411.35 1275.82 1410.05 1275.28 1408.82 1274.72C1401.18 1271.57 1392.1 1264.74 1386 1261.22C1368.99 1251.44 1341.13 1262.13 1323.81 1285.08C1306.46 1308.02 1306.22 1334.54 1323.23 1344.33C1335.92 1351.62 1354.63 1347.49 1370.53 1335.42C1375.73 1338.08 1381.41 1340.37 1387.59 1342.15C1393.82 1343.95 1400.18 1344.74 1406.25 1345.33C1410.81 1363.24 1423.17 1376.29 1438.53 1377.12C1459.14 1378.21 1477.29 1356.95 1479.06 1329.66C1480.84 1302.35 1465.58 1279.32 1444.99 1278.23Z" fill="#808BB8"/>
<path d="M-34.1165 721.927C-19.0033 720.276 -7.92026 706.548 -4.92923 688.4C1.01393 687.461 7.04322 685.985 13.0597 683.843C19.1442 681.673 24.5533 678.674 29.6002 675.696C46.5078 686.691 65.675 689.583 77.9442 681.514C94.3927 670.681 92.1956 644.294 73.0529 622.588C53.9004 600.872 25.042 592.049 8.60444 602.869C2.71886 606.759 -5.90426 614.123 -13.3589 617.747C-14.5958 618.447 -15.906 619.09 -17.349 619.599C-18.7159 620.093 -20.0985 620.425 -21.4652 620.686C-29.6085 622.628 -41.6311 622.583 -48.887 623.373C-69.1365 625.589 -82.2341 649.456 -78.152 676.667C-74.0756 703.887 -54.3512 724.143 -34.1165 721.927Z" fill="#808BB8"/>
<path d="M19.8667 620.022C18.048 616.182 20.1571 611.799 24.5783 610.218C29.01 608.641 34.0505 610.481 35.8687 614.321C37.6819 618.16 35.5777 622.546 31.152 624.121C26.7252 625.695 21.6808 623.859 19.8667 620.022ZM20.8648 645.475C16.444 647.054 11.3937 645.217 9.58486 641.381C7.76819 637.541 9.87722 633.159 14.2971 631.577C18.7228 630 23.7683 631.832 25.5863 635.677C27.406 639.514 25.292 643.896 20.8648 645.475ZM-24.4735 661.535L-35.0664 665.31L-30.7238 674.517C-29.8891 676.267 -30.8592 678.285 -32.8801 679.01L-41.3629 682.032C-43.3951 682.753 -45.7104 681.911 -46.5402 680.149L-50.8877 670.948L-61.4797 674.724C-63.5065 675.445 -65.8286 674.606 -66.6619 672.847L-70.1381 665.482C-70.968 663.721 -70.0023 661.707 -67.9716 660.99L-57.3788 657.213L-61.7227 648.014C-62.561 646.251 -61.5869 644.238 -59.5611 643.514L-51.0837 640.498C-49.0514 639.772 -46.7331 640.619 -45.9048 642.379L-41.5573 651.571L-30.964 647.794C-28.9338 647.077 -26.6155 647.916 -25.7887 649.681L-22.3069 657.045C-21.4786 658.806 -22.4427 660.815 -24.4735 661.535ZM68.0129 613.736C48.8604 592.02 20.002 583.196 3.56443 594.018C-2.32116 597.906 -10.9443 605.27 -18.3994 608.894C-19.6358 609.594 -20.946 610.237 -22.3891 610.746C-23.7559 611.24 -25.1385 611.572 -26.5052 611.833C-34.6485 613.775 -46.6711 613.73 -53.927 614.52C-74.1766 616.737 -87.2746 640.603 -83.192 667.815C-79.1156 695.034 -59.3912 715.291 -39.1565 713.074C-24.0433 711.423 -12.9602 697.695 -9.96926 679.548C-4.02609 678.609 2.0032 677.133 8.0197 674.99C14.1042 672.822 19.5132 669.821 24.5602 666.843C41.4677 677.838 60.635 680.73 72.9042 672.661C89.3526 661.83 87.1556 635.442 68.0129 613.736ZM45.4757 654.459C41.0558 656.034 36.0094 654.202 34.1961 650.359C32.384 646.522 34.4915 642.137 38.9123 640.558C43.3386 638.981 48.385 640.822 50.2022 644.656C52.0168 648.498 49.9078 652.882 45.4757 654.459ZM55.7432 633.053C51.3174 634.626 46.2725 632.793 44.4544 628.948C42.6397 625.111 44.7586 620.728 49.1754 619.155C53.6017 617.576 58.6471 619.41 60.4603 623.249C62.2745 627.089 60.1655 631.472 55.7432 633.053Z" fill="#313131"/>
<path d="M375.304 681.514C363.035 689.583 343.868 686.691 326.96 675.696C321.914 678.674 316.504 681.673 310.42 683.843C304.403 685.985 298.374 687.461 292.431 688.4C289.44 706.548 278.357 720.276 263.243 721.927C243.009 724.143 223.285 703.887 219.208 676.667C215.126 649.456 228.224 625.589 248.473 623.373C255.728 622.583 267.751 622.628 275.895 620.686C277.262 620.425 278.641 620.088 280.011 619.599C281.451 619.085 282.764 618.447 284 617.747C291.456 614.123 300.079 606.759 305.964 602.869C322.402 592.049 351.26 600.872 370.412 622.588C389.555 644.294 391.753 670.681 375.304 681.514Z" fill="#808BB8"/>
<path d="M327.306 620.022C325.488 616.182 327.597 611.799 332.018 610.218C336.45 608.641 341.49 610.481 343.308 614.321C345.122 618.16 343.017 622.546 338.592 624.121C334.165 625.695 329.121 623.859 327.306 620.022ZM328.304 645.475C323.884 647.054 318.834 645.217 317.025 641.381C315.208 637.541 317.317 633.159 321.737 631.577C326.162 630 331.209 631.832 333.026 635.677C334.846 639.514 332.732 643.896 328.304 645.475ZM282.966 661.535L272.373 665.31L276.716 674.517C277.552 676.267 276.58 678.285 274.559 679.01L266.077 682.032C264.044 682.753 261.73 681.911 260.899 680.149L256.552 670.948L245.961 674.724C243.933 675.445 241.611 674.606 240.778 672.847L237.302 665.482C236.472 663.721 237.437 661.707 239.468 660.99L250.061 657.213L245.718 648.014C244.878 646.251 245.852 644.238 247.879 643.514L256.356 640.498C258.388 639.772 260.707 640.619 261.534 642.379L265.883 651.571L276.475 647.794C278.507 647.077 280.824 647.916 281.652 649.681L285.133 657.045C285.961 658.806 284.997 660.815 282.966 661.535ZM375.452 613.736C356.3 592.02 327.442 583.196 311.005 594.018C305.119 597.906 296.496 605.27 289.04 608.894C287.804 609.594 286.491 610.232 285.051 610.746C283.681 611.235 282.302 611.572 280.935 611.833C272.791 613.775 260.768 613.73 253.513 614.52C233.264 616.737 220.165 640.603 224.248 667.815C228.325 695.034 248.049 715.291 268.283 713.074C283.397 711.423 294.48 697.695 297.471 679.548C303.414 678.609 309.443 677.133 315.46 674.99C321.544 672.822 326.954 669.821 332 666.843C348.908 677.838 368.075 680.73 380.344 672.661C396.793 661.83 394.595 635.442 375.452 613.736ZM352.916 654.459C348.496 656.034 343.45 654.202 341.636 650.359C339.823 646.522 341.931 642.137 346.353 640.558C350.779 638.981 355.825 640.822 357.642 644.656C359.457 648.498 357.347 652.882 352.916 654.459ZM363.184 633.053C358.757 634.626 353.712 632.793 351.894 628.948C350.08 625.111 352.198 620.728 356.615 619.155C361.042 617.576 366.087 619.41 367.9 623.249C369.714 627.089 367.605 631.472 363.184 633.053Z" fill="#313131"/>
<path d="M570.683 721.927C585.797 720.276 596.88 706.548 599.871 688.4C605.814 687.461 611.843 685.985 617.86 683.843C623.944 681.673 629.354 678.674 634.4 675.696C651.308 686.691 670.475 689.583 682.744 681.514C699.193 670.681 696.995 644.294 677.853 622.588C658.7 600.872 629.842 592.049 613.404 602.869C607.519 606.759 598.896 614.123 591.44 617.747C590.204 618.447 588.891 619.085 587.451 619.599C586.081 620.088 584.702 620.425 583.335 620.686C575.191 622.628 563.168 622.583 555.913 623.373C535.664 625.589 522.566 649.456 526.648 676.667C530.724 703.887 550.449 724.143 570.683 721.927Z" fill="#808BB8"/>
<path d="M624.667 620.022C622.848 616.182 624.958 611.799 629.379 610.218C633.81 608.641 638.85 610.481 640.669 614.321C642.482 618.16 640.377 622.546 635.952 624.121C631.525 625.695 626.481 623.859 624.667 620.022ZM625.664 645.475C621.244 647.054 616.194 645.217 614.385 641.381C612.568 637.541 614.677 633.159 619.097 631.577C623.522 630 628.569 631.832 630.386 635.677C632.206 639.514 630.092 643.896 625.664 645.475ZM580.326 661.535L569.733 665.31L574.076 674.517C574.912 676.267 573.94 678.285 571.919 679.01L563.437 682.032C561.404 682.753 559.09 681.911 558.259 680.149L553.912 670.948L543.321 674.724C541.294 675.445 538.971 674.606 538.139 672.847L534.662 665.482C533.832 663.721 534.798 661.707 536.828 660.99L547.421 657.213L543.078 648.014C542.239 646.251 543.213 644.238 545.239 643.514L553.716 640.498C555.748 639.772 558.067 640.619 558.896 642.379L563.243 651.571L573.836 647.794C575.867 647.077 578.184 647.916 579.012 649.681L582.493 657.045C583.322 658.806 582.357 660.815 580.326 661.535ZM672.814 613.736C653.66 592.02 624.803 583.196 608.365 594.018C602.479 597.906 593.856 605.27 586.4 608.894C585.164 609.594 583.851 610.232 582.411 610.746C581.042 611.235 579.662 611.572 578.295 611.833C570.151 613.775 558.128 613.73 550.873 614.52C530.624 616.737 517.526 640.603 521.609 667.815C525.685 695.034 545.409 715.291 565.643 713.074C580.757 711.423 591.84 697.695 594.831 679.548C600.774 678.609 606.803 677.133 612.82 674.99C618.905 672.822 624.314 669.821 629.36 666.843C646.268 677.838 665.435 680.73 677.704 672.661C694.153 661.83 691.956 635.442 672.814 613.736ZM650.276 654.459C645.856 656.034 640.81 654.202 638.996 650.359C637.183 646.522 639.291 642.137 643.713 640.558C648.139 638.981 653.185 640.822 655.002 644.656C656.817 648.498 654.707 652.882 650.276 654.459ZM660.544 633.053C656.117 634.626 651.072 632.793 649.254 628.948C647.44 625.111 649.558 620.728 653.975 619.155C658.402 617.576 663.447 619.41 665.26 623.249C667.074 627.089 664.965 631.472 660.544 633.053Z" fill="#313131"/>
<path d="M931.76 675.696C926.714 678.674 921.304 681.673 915.22 683.843C909.203 685.985 903.174 687.461 897.231 688.4C894.24 706.548 883.157 720.276 868.043 721.927C847.809 724.143 828.085 703.887 824.009 676.667C819.926 649.456 833.024 625.589 853.273 623.373C860.528 622.583 872.551 622.628 880.695 620.686C882.062 620.425 883.441 620.088 884.811 619.599C886.253 619.085 887.564 618.447 888.8 617.747C896.256 614.123 904.879 606.759 910.765 602.869C927.203 592.049 956.06 600.872 975.212 622.588C994.355 644.294 996.553 670.681 980.104 681.514C967.835 689.583 948.668 686.691 931.76 675.696Z" fill="#808BB8"/>
<path d="M932.106 620.022C930.288 616.182 932.397 611.799 936.817 610.218C941.25 608.641 946.29 610.481 948.108 614.321C949.921 618.16 947.817 622.546 943.392 624.121C938.965 625.695 933.921 623.859 932.106 620.022ZM933.104 645.475C928.684 647.054 923.634 645.217 921.825 641.381C920.008 637.541 922.117 633.159 926.537 631.577C930.962 630 936.009 631.832 937.825 635.677C939.646 639.514 937.532 643.896 933.104 645.475ZM887.766 661.535L877.173 665.31L881.516 674.517C882.351 676.267 881.38 678.285 879.359 679.01L870.877 682.032C868.844 682.753 866.53 681.911 865.699 680.149L861.352 670.948L850.761 674.724C848.733 675.445 846.411 674.606 845.578 672.847L842.102 665.482C841.272 663.721 842.238 661.707 844.268 660.99L854.861 657.213L850.518 648.014C849.678 646.251 850.652 644.238 852.678 643.514L861.156 640.498C863.188 639.772 865.507 640.619 866.336 642.379L870.683 651.571L881.275 647.794C883.307 647.077 885.624 647.916 886.452 649.681L889.933 657.045C890.761 658.806 889.797 660.815 887.766 661.535ZM980.252 613.736C961.1 592.02 932.242 583.196 915.804 594.018C909.919 597.906 901.296 605.27 893.84 608.894C892.604 609.594 891.291 610.232 889.851 610.746C888.481 611.235 887.102 611.572 885.735 611.833C877.591 613.775 865.568 613.73 858.313 614.52C838.064 616.737 824.965 640.603 829.048 667.815C833.125 695.034 852.849 715.291 873.083 713.074C888.197 711.423 899.28 697.695 902.271 679.548C908.214 678.609 914.243 677.133 920.26 674.99C926.344 672.822 931.754 669.821 936.8 666.843C953.708 677.838 972.875 680.73 985.144 672.661C1001.59 661.83 999.395 635.442 980.252 613.736ZM957.716 654.459C953.296 656.034 948.249 654.202 946.436 650.359C944.623 646.522 946.731 642.137 951.153 640.558C955.579 638.981 960.625 640.822 962.442 644.656C964.257 648.498 962.147 652.882 957.716 654.459ZM967.984 633.053C963.557 634.626 958.512 632.793 956.694 628.948C954.88 625.111 956.998 620.728 961.415 619.155C965.842 617.576 970.887 619.41 972.7 623.249C974.514 627.089 972.405 631.472 967.984 633.053Z" fill="#313131"/>
<path d="M1218.2 602.869C1212.32 606.759 1203.7 614.123 1196.24 617.747C1195 618.447 1193.69 619.085 1192.25 619.599C1190.88 620.088 1189.5 620.425 1188.13 620.686C1179.99 622.628 1167.97 622.583 1160.71 623.373C1140.46 625.589 1127.37 649.456 1131.45 676.667C1135.52 703.887 1155.25 724.143 1175.48 721.927C1190.6 720.276 1201.68 706.548 1204.67 688.4C1210.61 687.461 1216.64 685.985 1222.66 683.843C1228.74 681.673 1234.15 678.674 1239.2 675.696C1256.11 686.691 1275.27 689.583 1287.54 681.514C1303.99 670.681 1301.79 644.294 1282.65 622.588C1263.5 600.872 1234.64 592.049 1218.2 602.869Z" fill="#6672A3"/>
<path d="M1229.47 620.022C1227.65 616.182 1229.76 611.799 1234.18 610.218C1238.61 608.641 1243.65 610.481 1245.47 614.321C1247.28 618.16 1245.18 622.546 1240.75 624.121C1236.32 625.695 1231.28 623.859 1229.47 620.022ZM1230.46 645.475C1226.04 647.054 1220.99 645.217 1219.18 641.381C1217.37 637.541 1219.48 633.159 1223.9 631.577C1228.32 630 1233.37 631.832 1235.19 635.677C1237.01 639.514 1234.89 643.896 1230.46 645.475ZM1185.13 661.535L1174.53 665.31L1178.88 674.517C1179.71 676.267 1178.74 678.285 1176.72 679.01L1168.24 682.032C1166.2 682.753 1163.89 681.911 1163.06 680.149L1158.71 670.948L1148.12 674.724C1146.09 675.445 1143.77 674.606 1142.94 672.847L1139.46 665.482C1138.63 663.721 1139.6 661.707 1141.63 660.99L1152.22 657.213L1147.88 648.014C1147.04 646.251 1148.01 644.238 1150.04 643.514L1158.52 640.498C1160.55 639.772 1162.87 640.619 1163.7 642.379L1168.04 651.571L1178.64 647.794C1180.67 647.077 1182.98 647.916 1183.81 649.681L1187.29 657.045C1188.12 658.806 1187.16 660.815 1185.13 661.535ZM1277.61 613.736C1258.46 592.02 1229.6 583.196 1213.16 594.018C1207.28 597.906 1198.66 605.27 1191.2 608.894C1189.96 609.594 1188.65 610.232 1187.21 610.746C1185.84 611.235 1184.46 611.572 1183.09 611.833C1174.95 613.775 1162.93 613.73 1155.67 614.52C1135.42 616.737 1122.33 640.603 1126.41 667.815C1130.48 695.034 1150.21 715.291 1170.44 713.074C1185.56 711.423 1196.64 697.695 1199.63 679.548C1205.57 678.609 1211.6 677.133 1217.62 674.99C1223.7 672.822 1229.11 669.821 1234.16 666.843C1251.07 677.838 1270.23 680.73 1282.5 672.661C1298.95 661.83 1296.75 635.442 1277.61 613.736ZM1255.08 654.459C1250.66 656.034 1245.61 654.202 1243.8 650.359C1241.98 646.522 1244.09 642.137 1248.51 640.558C1252.94 638.981 1257.99 640.822 1259.8 644.656C1261.61 648.498 1259.51 652.882 1255.08 654.459ZM1265.34 633.053C1260.92 634.626 1255.87 632.793 1254.05 628.948C1252.24 625.111 1254.36 620.728 1258.78 619.155C1263.2 617.576 1268.25 619.41 1270.05 623.249C1271.87 627.089 1269.76 631.472 1265.34 633.053Z" fill="#313131"/>
<path d="M1455.55 623.373C1462.81 622.583 1474.83 622.628 1482.97 620.686C1484.34 620.425 1485.73 620.093 1487.09 619.599C1488.54 619.09 1489.85 618.447 1491.08 617.747C1498.53 614.123 1507.16 606.759 1513.05 602.869C1529.48 592.049 1558.34 600.872 1577.49 622.588C1596.63 644.294 1598.83 670.681 1582.38 681.514C1570.11 689.583 1550.95 686.691 1534.04 675.696C1529 678.674 1523.58 681.673 1517.49 683.843C1511.48 685.985 1505.45 687.461 1499.51 688.4C1496.51 706.548 1485.44 720.276 1470.32 721.927C1450.08 724.143 1430.36 703.887 1426.28 676.667C1422.2 649.456 1435.3 625.589 1455.55 623.373Z" fill="#808BB8"/>
<path d="M1534.39 620.022C1532.56 616.182 1534.68 611.799 1539.1 610.218C1543.53 608.641 1548.57 610.481 1550.39 614.321C1552.21 618.16 1550.1 622.546 1545.67 624.121C1541.24 625.695 1536.2 623.859 1534.39 620.022ZM1535.39 645.475C1530.96 647.054 1525.91 645.217 1524.11 641.381C1522.29 637.541 1524.4 633.159 1528.82 631.577C1533.24 630 1538.28 631.832 1540.11 635.677C1541.92 639.514 1539.81 643.896 1535.39 645.475ZM1490.05 661.535L1479.45 665.31L1483.8 674.517C1484.63 676.267 1483.66 678.285 1481.63 679.01L1473.15 682.032C1471.13 682.753 1468.81 681.911 1467.98 680.149L1463.63 670.948L1453.04 674.724C1451.02 675.445 1448.7 674.606 1447.85 672.847L1444.38 665.482C1443.56 663.721 1444.51 661.707 1446.54 660.99L1457.14 657.213L1452.79 648.014C1451.96 646.251 1452.93 644.238 1454.96 643.514L1463.44 640.498C1465.47 639.772 1467.79 640.619 1468.62 642.379L1472.97 651.571L1483.56 647.794C1485.59 647.077 1487.91 647.916 1488.73 649.681L1492.22 657.045C1493.04 658.806 1492.08 660.815 1490.05 661.535ZM1582.53 613.736C1563.38 592.02 1534.52 583.196 1518.09 594.018C1512.2 597.906 1503.57 605.27 1496.12 608.894C1494.89 609.594 1493.58 610.237 1492.13 610.746C1490.77 611.24 1489.38 611.572 1488.01 611.833C1479.87 613.775 1467.85 613.73 1460.59 614.52C1440.34 616.737 1427.24 640.603 1431.32 667.815C1435.4 695.034 1455.12 715.291 1475.36 713.074C1490.48 711.423 1501.55 697.695 1504.55 679.548C1510.49 678.609 1516.52 677.133 1522.53 674.99C1528.62 672.822 1534.04 669.821 1539.08 666.843C1555.99 677.838 1575.15 680.73 1587.42 672.661C1603.87 661.83 1601.67 635.442 1582.53 613.736ZM1559.99 654.459C1555.57 656.034 1550.53 654.202 1548.72 650.359C1546.9 646.522 1549.01 642.137 1553.43 640.558C1557.86 638.981 1562.9 640.822 1564.72 644.656C1566.53 648.498 1564.43 652.882 1559.99 654.459ZM1570.26 633.053C1565.84 634.626 1560.79 632.793 1558.97 628.948C1557.16 625.111 1559.28 620.728 1563.7 619.155C1568.12 617.576 1573.17 619.41 1574.97 623.249C1576.79 627.089 1574.69 631.472 1570.26 633.053Z" fill="#313131"/>
<path d="M177.535 839.813C170.153 839.43 158.086 840.133 149.712 838.661C148.248 838.492 146.772 838.238 145.296 837.807C143.888 837.407 142.592 836.877 141.358 836.301C133.726 833.164 124.643 826.324 118.548 822.815C101.528 813.032 73.6795 823.716 56.3476 846.663C39.0049 869.611 38.7558 896.138 55.7643 905.912C68.4637 913.214 87.1733 909.08 103.065 897.011C108.277 899.663 113.957 901.957 120.128 903.738C126.369 905.538 132.723 906.326 138.786 906.923C143.354 924.832 155.717 937.876 171.079 938.703C191.683 939.8 209.827 918.546 211.604 891.25C213.384 863.94 198.124 840.913 177.535 839.813Z" fill="#808BB8"/>
<path d="M169.847 895.412C168.339 899.354 163.448 901.483 158.902 900.171C154.37 898.862 151.918 894.617 153.428 890.677C154.933 886.741 159.823 884.609 164.362 885.914C168.902 887.224 171.347 891.476 169.847 895.412ZM146.984 879.427C142.447 878.121 139.996 873.869 141.506 869.936C143.009 865.996 147.899 863.867 152.437 865.169C156.977 866.478 159.429 870.724 157.921 874.669C156.42 878.608 151.528 880.735 146.984 879.427ZM108.45 856.205L105.562 863.76C104.868 865.565 102.629 866.542 100.548 865.939L89.6815 862.805L86.0634 872.245C85.3823 874.044 83.1319 875.025 81.0544 874.432L72.3535 871.921C70.2716 871.317 69.1484 869.367 69.8414 867.562L73.4516 858.124L62.5846 854.992C60.5071 854.39 59.376 852.439 60.0651 850.634L62.9572 843.082C63.6502 841.276 65.8941 840.296 67.9726 840.901L78.8401 844.034L82.4523 834.599C83.1398 832.788 85.3901 831.812 87.4691 832.41L96.1621 834.923C98.248 835.522 99.3702 837.476 98.6777 839.28L95.0739 848.711L105.942 851.844C108.02 852.45 109.148 854.399 108.45 856.205ZM172.495 830.612C165.113 830.229 153.046 830.931 144.672 829.459C143.208 829.29 141.732 829.036 140.256 828.605C138.848 828.205 137.552 827.675 136.318 827.099C128.686 823.961 119.603 817.122 113.508 813.614C96.4879 803.831 68.6395 814.514 51.3071 837.46C33.9649 860.409 33.7158 886.936 50.7243 896.709C63.4237 904.013 82.1333 899.877 98.0251 887.808C103.237 890.461 108.917 892.755 115.088 894.536C121.33 896.336 127.683 897.123 133.746 897.721C138.314 915.63 150.677 928.674 166.039 929.5C186.643 930.598 204.787 909.344 206.564 882.048C208.344 854.738 193.084 831.711 172.495 830.612ZM170.816 869.057C166.277 867.744 163.831 863.496 165.336 859.559C166.839 855.619 171.729 853.488 176.268 854.793C180.813 856.106 183.253 860.354 181.75 864.294C180.243 868.233 175.355 870.368 170.816 869.057ZM193.695 884.987C192.189 888.925 187.299 891.055 182.759 889.751C178.222 888.438 175.773 884.192 177.281 880.247C178.785 876.31 183.682 874.187 188.211 875.493C192.754 876.802 195.203 881.048 193.695 884.987Z" fill="#313131"/>
<path d="M523.429 891.25C521.65 918.546 503.507 939.8 482.902 938.703C467.541 937.876 455.177 924.832 450.61 906.923C444.548 906.326 438.194 905.538 431.952 903.738C425.782 901.957 420.102 899.663 414.889 897.011C398.998 909.08 380.288 913.214 367.589 905.912C350.58 896.138 350.829 869.611 368.172 846.663C385.503 823.716 413.352 813.032 430.372 822.815C436.466 826.324 445.55 833.164 453.183 836.301C454.415 836.877 455.714 837.403 457.12 837.807C458.598 838.233 460.073 838.492 461.537 838.661C469.909 840.133 481.976 839.43 489.36 839.813C509.947 840.913 525.207 863.94 523.429 891.25Z" fill="#808BB8"/>
<path d="M491.751 895.412C490.242 899.354 485.353 901.483 480.807 900.171C476.274 898.862 473.822 894.617 475.331 890.677C476.838 886.741 481.728 884.609 486.265 885.914C490.806 887.224 493.252 891.476 491.751 895.412ZM468.889 879.427C464.352 878.121 461.901 873.869 463.409 869.936C464.914 865.996 469.802 863.867 474.342 865.169C478.882 866.478 481.333 870.724 479.824 874.669C478.324 878.608 473.431 880.735 468.889 879.427ZM430.354 856.205L427.466 863.76C426.772 865.565 424.533 866.542 422.453 865.939L411.585 862.805L407.968 872.245C407.286 874.044 405.036 875.025 402.958 874.432L394.258 871.921C392.176 871.317 391.052 869.367 391.745 867.562L395.355 858.124L384.489 854.992C382.411 854.39 381.28 852.439 381.969 850.634L384.861 843.082C385.554 841.276 387.798 840.296 389.877 840.901L400.744 844.034L404.357 834.599C405.043 832.788 407.295 831.812 409.373 832.41L418.067 834.923C420.152 835.522 421.275 837.476 420.582 839.28L416.978 848.711L427.846 851.844C429.925 852.45 431.052 854.399 430.354 856.205ZM494.4 830.612C487.016 830.229 474.949 830.931 466.577 829.459C465.113 829.29 463.638 829.03 462.16 828.605C460.754 828.2 459.455 827.675 458.223 827.099C450.59 823.961 441.506 817.122 435.412 813.614C418.392 803.831 390.543 814.514 373.212 837.46C355.869 860.409 355.62 886.936 372.629 896.709C385.328 904.013 404.038 899.877 419.929 887.808C425.142 890.461 430.822 892.755 436.992 894.536C443.234 896.336 449.588 897.123 455.65 897.721C460.217 915.63 472.581 928.674 487.943 929.5C508.547 930.598 526.69 909.344 528.469 882.048C530.247 854.738 514.987 831.711 494.4 830.612ZM492.72 869.057C488.182 867.744 485.735 863.496 487.239 859.559C488.743 855.619 493.633 853.488 498.172 854.793C502.716 856.106 505.158 860.354 503.655 864.294C502.146 868.233 497.259 870.368 492.72 869.057ZM515.6 884.987C514.094 888.925 509.204 891.055 504.663 889.751C500.125 888.438 497.676 884.192 499.184 880.247C500.689 876.31 505.585 874.187 510.116 875.493C514.658 876.802 517.106 881.048 515.6 884.987Z" fill="#313131"/>
<path d="M689.492 905.912C702.192 913.214 720.901 909.08 736.794 897.011C742.005 899.663 747.685 901.957 753.857 903.738C760.097 905.538 766.452 906.326 772.515 906.923C777.082 924.832 789.445 937.876 804.807 938.703C825.411 939.8 843.555 918.546 845.333 891.25C847.112 863.94 831.852 840.913 811.264 839.813C803.881 839.43 791.814 840.133 783.44 838.661C781.976 838.492 780.503 838.233 779.024 837.807C777.619 837.403 776.32 836.877 775.086 836.301C767.455 833.164 758.37 826.324 752.275 822.815C735.257 813.032 707.408 823.716 690.075 846.663C672.733 869.611 672.483 896.138 689.492 905.912Z" fill="#808BB8"/>
<path d="M803.575 895.412C802.067 899.354 797.177 901.483 792.631 900.171C788.098 898.862 785.646 894.617 787.156 890.677C788.662 886.741 793.552 884.609 798.09 885.914C802.63 887.224 805.076 891.476 803.575 895.412ZM780.712 879.427C776.175 878.121 773.724 873.869 775.234 869.936C776.738 865.996 781.627 863.867 786.166 865.169C790.705 866.478 793.157 870.724 791.649 874.669C790.148 878.608 785.256 880.735 780.712 879.427ZM742.179 856.205L739.291 863.76C738.597 865.565 736.358 866.542 734.276 865.939L723.41 862.805L719.791 872.245C719.111 874.044 716.861 875.025 714.783 874.432L706.081 871.921C704 871.317 702.877 869.367 703.57 867.562L707.18 858.124L696.312 854.992C694.235 854.39 693.104 852.439 693.794 850.634L696.685 843.082C697.378 841.276 699.622 840.296 701.7 840.901L712.568 844.034L716.18 834.599C716.868 832.788 719.118 831.812 721.197 832.41L729.89 834.923C731.977 835.522 733.098 837.476 732.406 839.28L728.802 848.711L739.67 851.844C741.748 852.45 742.876 854.399 742.179 856.205ZM806.224 830.612C798.841 830.229 786.774 830.931 778.4 829.459C776.936 829.29 775.463 829.03 773.984 828.605C772.579 828.2 771.28 827.675 770.046 827.099C762.415 823.961 753.33 817.122 747.235 813.614C730.217 803.831 702.368 814.514 685.035 837.46C667.693 860.409 667.443 886.936 684.452 896.709C697.152 904.013 715.861 899.877 731.754 887.808C736.965 890.461 742.645 892.755 748.817 894.536C755.057 896.336 761.412 897.123 767.475 897.721C772.042 915.63 784.405 928.674 799.767 929.5C820.371 930.598 838.515 909.344 840.293 882.048C842.072 854.738 826.812 831.711 806.224 830.612ZM804.544 869.057C800.005 867.744 797.56 863.496 799.064 859.559C800.567 855.619 805.457 853.488 809.996 854.793C814.541 856.106 816.981 860.354 815.478 864.294C813.971 868.233 809.082 870.368 804.544 869.057ZM827.423 884.987C825.917 888.925 821.027 891.055 816.487 889.751C811.95 888.438 809.501 884.192 811.008 880.247C812.513 876.31 817.409 874.187 821.939 875.493C826.482 876.802 828.931 881.048 827.423 884.987Z" fill="#313131"/>
<path d="M1116.63 938.703C1101.27 937.876 1088.91 924.832 1084.34 906.923C1078.28 906.326 1071.92 905.538 1065.68 903.738C1059.51 901.957 1053.83 899.663 1048.62 897.011C1032.73 909.08 1014.02 913.214 1001.32 905.912C984.308 896.138 984.558 869.611 1001.9 846.663C1019.23 823.716 1047.08 813.032 1064.1 822.815C1070.2 826.324 1079.28 833.164 1086.91 836.301C1088.14 836.877 1089.44 837.403 1090.85 837.807C1092.33 838.233 1093.8 838.492 1095.27 838.661C1103.64 840.133 1115.7 839.43 1123.09 839.813C1143.68 840.913 1158.94 863.94 1157.16 891.25C1155.38 918.546 1137.24 939.8 1116.63 938.703Z" fill="#808BB8"/>
<path d="M1125.48 895.412C1123.97 899.354 1119.08 901.483 1114.54 900.171C1110 898.862 1107.55 894.617 1109.06 890.677C1110.57 886.741 1115.46 884.609 1119.99 885.914C1124.53 887.224 1126.98 891.476 1125.48 895.412ZM1102.62 879.427C1098.08 878.121 1095.63 873.869 1097.14 869.936C1098.64 865.996 1103.53 863.867 1108.07 865.169C1112.61 866.478 1115.06 870.724 1113.55 874.669C1112.05 878.608 1107.16 880.735 1102.62 879.427ZM1064.08 856.205L1061.19 863.76C1060.5 865.565 1058.26 866.542 1056.18 865.939L1045.31 862.805L1041.7 872.245C1041.01 874.044 1038.76 875.025 1036.69 874.432L1027.99 871.921C1025.9 871.317 1024.78 869.367 1025.47 867.562L1029.08 858.124L1018.22 854.992C1016.14 854.39 1015.01 852.439 1015.7 850.634L1018.59 843.082C1019.28 841.276 1021.53 840.296 1023.61 840.901L1034.47 844.034L1038.08 834.599C1038.77 832.788 1041.02 831.812 1043.1 832.41L1051.8 834.923C1053.88 835.522 1055 837.476 1054.31 839.28L1050.71 848.711L1061.57 851.844C1063.65 852.45 1064.78 854.399 1064.08 856.205ZM1128.13 830.612C1120.74 830.229 1108.68 830.931 1100.3 829.459C1098.84 829.29 1097.37 829.03 1095.89 828.605C1094.48 828.2 1093.18 827.675 1091.95 827.099C1084.32 823.961 1075.23 817.122 1069.14 813.614C1052.12 803.831 1024.27 814.514 1006.94 837.46C989.598 860.409 989.348 886.936 1006.36 896.709C1019.06 904.013 1037.77 899.877 1053.66 887.808C1058.87 890.461 1064.55 892.755 1070.72 894.536C1076.96 896.336 1083.32 897.123 1089.38 897.721C1093.95 915.63 1106.31 928.674 1121.67 929.5C1142.28 930.598 1160.42 909.344 1162.2 882.048C1163.98 854.738 1148.72 831.711 1128.13 830.612ZM1126.45 869.057C1121.91 867.744 1119.46 863.496 1120.97 859.559C1122.47 855.619 1127.36 853.488 1131.9 854.793C1136.44 856.106 1138.89 860.354 1137.38 864.294C1135.87 868.233 1130.99 870.368 1126.45 869.057ZM1149.33 884.987C1147.82 888.925 1142.93 891.055 1138.39 889.751C1133.85 888.438 1131.4 884.192 1132.91 880.247C1134.42 876.31 1139.31 874.187 1143.84 875.493C1148.39 876.802 1150.83 881.048 1149.33 884.987Z" fill="#313131"/>
<path d="M1323.23 905.912C1335.92 913.214 1354.63 909.08 1370.53 897.011C1375.73 899.663 1381.41 901.957 1387.59 903.738C1393.82 905.538 1400.18 906.326 1406.25 906.923C1410.81 924.832 1423.17 937.876 1438.53 938.703C1459.14 939.8 1477.29 918.546 1479.06 891.25C1480.84 863.94 1465.58 840.913 1444.99 839.813C1437.61 839.43 1425.54 840.133 1417.17 838.661C1415.71 838.492 1414.22 838.238 1412.75 837.807C1411.35 837.407 1410.05 836.877 1408.82 836.301C1401.18 833.164 1392.1 826.324 1386 822.815C1368.99 813.032 1341.13 823.716 1323.81 846.663C1306.46 869.611 1306.22 896.138 1323.23 905.912Z" fill="#808BB8"/>
<path d="M1437.31 895.412C1435.8 899.354 1430.91 901.483 1426.36 900.171C1421.82 898.862 1419.38 894.617 1420.89 890.677C1422.39 886.741 1427.28 884.609 1431.81 885.914C1436.36 887.224 1438.81 891.476 1437.31 895.412ZM1414.44 879.427C1409.9 878.121 1407.46 873.869 1408.96 869.936C1410.47 865.996 1415.36 863.867 1419.89 865.169C1424.43 866.478 1426.89 870.724 1425.38 874.669C1423.88 878.608 1418.99 880.735 1414.44 879.427ZM1375.91 856.205L1373.02 863.76C1372.33 865.565 1370.09 866.542 1368.01 865.939L1357.13 862.805L1353.52 872.245C1352.84 874.044 1350.59 875.025 1348.52 874.432L1339.81 871.921C1337.73 871.317 1336.61 869.367 1337.3 867.562L1340.9 858.124L1330.04 854.992C1327.96 854.39 1326.83 852.439 1327.52 850.634L1330.41 843.082C1331.1 841.276 1333.34 840.296 1335.42 840.901L1346.3 844.034L1349.91 834.599C1350.59 832.788 1352.85 831.812 1354.93 832.41L1363.62 834.923C1365.7 835.522 1366.82 837.476 1366.13 839.28L1362.53 848.711L1373.4 851.844C1375.48 852.45 1376.6 854.399 1375.91 856.205ZM1439.95 830.612C1432.57 830.229 1420.5 830.931 1412.13 829.459C1410.67 829.29 1409.18 829.036 1407.71 828.605C1406.31 828.205 1405.01 827.675 1403.78 827.099C1396.14 823.961 1387.06 817.122 1380.96 813.614C1363.95 803.831 1336.09 814.514 1318.77 837.46C1301.42 860.409 1301.18 886.936 1318.19 896.709C1330.88 904.013 1349.59 899.877 1365.49 887.808C1370.69 890.461 1376.37 892.755 1382.55 894.536C1388.78 896.336 1395.14 897.123 1401.21 897.721C1405.77 915.63 1418.13 928.674 1433.49 929.5C1454.1 930.598 1472.25 909.344 1474.02 882.048C1475.8 854.738 1460.54 831.711 1439.95 830.612ZM1438.28 869.057C1433.73 867.744 1431.28 863.496 1432.8 859.559C1434.3 855.619 1439.18 853.488 1443.72 854.793C1448.27 856.106 1450.71 860.354 1449.2 864.294C1447.7 868.233 1442.81 870.368 1438.28 869.057ZM1461.15 884.987C1459.65 888.925 1454.76 891.055 1450.21 889.751C1445.67 888.438 1443.23 884.192 1444.74 880.247C1446.24 876.31 1451.14 874.187 1455.67 875.493C1460.21 876.802 1462.66 881.048 1461.15 884.987Z" fill="#313131"/>
<path d="M-34.1165 284.733C-19.0033 283.081 -7.92026 269.354 -4.92923 251.206C1.01393 250.266 7.04322 248.79 13.0597 246.648C19.1442 244.479 24.5533 241.48 29.6002 238.501C46.5078 249.496 65.675 252.389 77.9442 244.319C94.3927 233.487 92.1956 207.104 73.0529 185.395C53.9004 163.676 25.042 154.857 8.60444 165.678C2.71886 169.563 -5.90426 176.926 -13.3589 180.548C-14.5958 181.248 -15.906 181.894 -17.349 182.408C-18.7159 182.901 -20.0985 183.229 -21.4652 183.491C-29.6085 185.428 -41.6311 185.384 -48.887 186.183C-69.1365 188.393 -82.2341 212.257 -78.152 239.473C-74.0756 266.693 -54.3512 286.949 -34.1165 284.733Z" fill="#808BB8"/>
<path d="M19.8667 182.923C18.048 179.082 20.1571 174.706 24.5783 173.119C29.01 171.544 34.0505 173.382 35.8687 177.222C37.6819 181.063 35.5777 185.45 31.152 187.026C26.7252 188.602 21.6808 186.763 19.8667 182.923ZM20.8648 208.384C16.444 209.96 11.3937 208.121 9.58486 204.292C7.76819 200.451 9.87722 196.064 14.2971 194.477C18.7228 192.902 23.7683 194.74 25.5863 198.58C27.406 202.421 25.292 206.798 20.8648 208.384ZM-24.4735 224.441L-35.0664 228.216L-30.7238 237.422C-29.8891 239.173 -30.8592 241.191 -32.8801 241.916L-41.3629 244.938C-43.3951 245.658 -45.7104 244.816 -46.5402 243.054L-50.8877 233.854L-61.4797 237.63C-63.5065 238.35 -65.8286 237.511 -66.6619 235.751L-70.1381 228.388C-70.968 226.626 -70.0023 224.613 -67.9716 223.895L-57.3788 220.119L-61.7227 210.923C-62.561 209.161 -61.5869 207.137 -59.5611 206.426L-51.0837 203.406C-49.0514 202.673 -46.7331 203.526 -45.9048 205.288L-41.5573 214.479L-30.964 210.704C-28.9338 209.982 -26.6155 210.824 -25.7887 212.586L-22.3069 219.95C-21.4786 221.711 -22.4427 223.72 -24.4735 224.441ZM68.0129 176.642C48.8604 154.923 20.002 146.104 3.56443 156.925C-2.32116 160.81 -10.9443 168.173 -18.3994 171.795C-19.6358 172.495 -20.946 173.141 -22.3891 173.655C-23.7559 174.148 -25.1385 174.476 -26.5052 174.739C-34.6485 176.675 -46.6711 176.631 -53.927 177.43C-74.1766 179.64 -87.2746 203.504 -83.192 230.72C-79.1156 257.94 -59.3912 278.196 -39.1565 275.98C-24.0433 274.329 -12.9602 260.601 -9.96926 242.453C-4.02609 241.513 2.0032 240.037 8.0197 237.895C14.1042 235.726 19.5132 232.727 24.5602 229.748C41.4677 240.743 60.635 243.636 72.9042 235.566C89.3526 224.734 87.1556 198.351 68.0129 176.642ZM45.4757 217.367C41.0558 218.938 36.0094 217.105 34.1961 213.264C32.384 209.424 34.4915 205.047 38.9123 203.46C43.3386 201.885 48.385 203.723 50.2022 207.564C52.0168 211.404 49.9078 215.781 45.4757 217.367ZM55.7432 195.954C51.3174 197.53 46.2725 195.703 44.4544 191.851C42.6397 188.011 44.7586 183.634 49.1754 182.059C53.6017 180.483 58.6471 182.31 60.4603 186.151C62.2745 189.991 60.1655 194.379 55.7432 195.954Z" fill="#313131"/>
<path d="M375.304 244.319C363.035 252.389 343.868 249.496 326.96 238.501C321.914 241.48 316.504 244.479 310.42 246.648C304.403 248.79 298.374 250.266 292.431 251.206C289.44 269.354 278.357 283.081 263.243 284.733C243.009 286.949 223.285 266.693 219.208 239.473C215.126 212.257 228.224 188.393 248.473 186.183C255.728 185.384 267.751 185.428 275.895 183.491C277.262 183.229 278.641 182.89 280.011 182.408C281.451 181.894 282.764 181.248 284 180.548C291.456 176.926 300.079 169.563 305.964 165.678C322.402 154.857 351.26 163.676 370.412 185.395C389.555 207.104 391.753 233.487 375.304 244.319Z" fill="#808BB8"/>
<path d="M327.306 182.923C325.488 179.082 327.597 174.706 332.018 173.119C336.45 171.544 341.49 173.382 343.308 177.222C345.122 181.063 343.017 185.45 338.592 187.026C334.165 188.602 329.121 186.763 327.306 182.923ZM328.304 208.384C323.884 209.96 318.834 208.121 317.025 204.292C315.208 200.451 317.317 196.064 321.737 194.477C326.162 192.902 331.209 194.74 333.026 198.58C334.846 202.421 332.732 206.798 328.304 208.384ZM282.966 224.441L272.373 228.216L276.716 237.422C277.552 239.173 276.58 241.191 274.559 241.916L266.077 244.938C264.044 245.658 261.73 244.816 260.899 243.054L256.552 233.854L245.961 237.63C243.933 238.35 241.611 237.511 240.778 235.751L237.302 228.388C236.472 226.626 237.437 224.613 239.468 223.895L250.061 220.119L245.718 210.923C244.878 209.161 245.852 207.137 247.879 206.426L256.356 203.406C258.388 202.673 260.707 203.526 261.534 205.288L265.883 214.479L276.475 210.704C278.507 209.982 280.824 210.824 281.652 212.586L285.133 219.95C285.961 221.711 284.997 223.72 282.966 224.441ZM375.452 176.642C356.3 154.923 327.442 146.104 311.005 156.925C305.119 160.81 296.496 168.173 289.04 171.795C287.804 172.495 286.491 173.141 285.051 173.655C283.681 174.137 282.302 174.476 280.935 174.739C272.791 176.675 260.768 176.631 253.513 177.43C233.264 179.64 220.165 203.504 224.248 230.72C228.325 257.94 248.049 278.196 268.283 275.98C283.397 274.329 294.48 260.601 297.471 242.453C303.414 241.513 309.443 240.037 315.46 237.895C321.544 235.726 326.954 232.727 332 229.748C348.908 240.743 368.075 243.636 380.344 235.566C396.793 224.734 394.595 198.351 375.452 176.642ZM352.916 217.367C348.496 218.938 343.45 217.105 341.636 213.264C339.823 209.424 341.931 205.047 346.353 203.46C350.779 201.885 355.825 203.723 357.642 207.564C359.457 211.404 357.347 215.781 352.916 217.367ZM363.184 195.954C358.757 197.53 353.712 195.703 351.894 191.851C350.08 188.011 352.198 183.634 356.615 182.059C361.042 180.483 366.087 182.31 367.9 186.151C369.714 189.991 367.605 194.379 363.184 195.954Z" fill="#313131"/>
<path d="M526.648 239.473C530.724 266.693 550.449 286.949 570.683 284.733C585.797 283.081 596.88 269.354 599.871 251.206C605.814 250.266 611.843 248.79 617.86 246.648C623.944 244.479 629.354 241.48 634.4 238.501C651.308 249.496 670.475 252.389 682.744 244.319C699.193 233.487 696.995 207.104 677.853 185.395C658.7 163.676 629.842 154.857 613.404 165.678C607.519 169.563 598.896 176.926 591.44 180.548C590.204 181.248 588.891 181.894 587.451 182.408C586.081 182.89 584.702 183.229 583.335 183.491C575.191 185.428 563.168 185.384 555.913 186.183C535.664 188.393 522.566 212.257 526.648 239.473Z" fill="#808BB8"/>
<path d="M624.667 182.923C622.848 179.082 624.958 174.706 629.379 173.119C633.81 171.544 638.85 173.382 640.669 177.222C642.482 181.063 640.377 185.45 635.952 187.026C631.525 188.602 626.481 186.763 624.667 182.923ZM625.664 208.384C621.244 209.96 616.194 208.121 614.385 204.292C612.568 200.451 614.677 196.064 619.097 194.477C623.522 192.902 628.569 194.74 630.386 198.58C632.206 202.421 630.092 206.798 625.664 208.384ZM580.326 224.441L569.733 228.216L574.076 237.422C574.912 239.173 573.94 241.191 571.919 241.916L563.437 244.938C561.404 245.658 559.09 244.816 558.259 243.054L553.912 233.854L543.321 237.63C541.294 238.35 538.971 237.511 538.139 235.751L534.662 228.388C533.832 226.626 534.798 224.613 536.828 223.895L547.421 220.119L543.078 210.923C542.239 209.161 543.213 207.137 545.239 206.426L553.716 203.406C555.748 202.673 558.067 203.526 558.896 205.288L563.243 214.479L573.836 210.704C575.867 209.982 578.184 210.824 579.012 212.586L582.493 219.95C583.322 221.711 582.357 223.72 580.326 224.441ZM672.814 176.642C653.66 154.923 624.803 146.104 608.365 156.925C602.479 160.81 593.856 168.173 586.4 171.795C585.164 172.495 583.851 173.141 582.411 173.655C581.042 174.137 579.662 174.476 578.295 174.739C570.151 176.675 558.128 176.631 550.873 177.43C530.624 179.64 517.526 203.504 521.609 230.72C525.685 257.94 545.409 278.196 565.643 275.98C580.757 274.329 591.84 260.601 594.831 242.453C600.774 241.513 606.803 240.037 612.82 237.895C618.905 235.726 624.314 232.727 629.36 229.748C646.268 240.743 665.435 243.636 677.704 235.566C694.153 224.734 691.956 198.351 672.814 176.642ZM650.276 217.367C645.856 218.938 640.81 217.105 638.996 213.264C637.183 209.424 639.291 205.047 643.713 203.46C648.139 201.885 653.185 203.723 655.002 207.564C656.817 211.404 654.707 215.781 650.276 217.367ZM660.544 195.954C656.117 197.53 651.072 195.703 649.254 191.851C647.44 188.011 649.558 183.634 653.975 182.059C658.402 180.483 663.447 182.31 665.26 186.151C667.074 189.991 664.965 194.379 660.544 195.954Z" fill="#313131"/>
<path d="M980.104 244.319C967.835 252.389 948.668 249.496 931.76 238.501C926.714 241.48 921.304 244.479 915.22 246.648C909.203 248.79 903.174 250.266 897.231 251.206C894.24 269.354 883.157 283.081 868.043 284.733C847.809 286.949 828.085 266.693 824.009 239.473C819.926 212.257 833.024 188.393 853.273 186.183C860.528 185.384 872.551 185.428 880.695 183.491C882.062 183.229 883.441 182.89 884.811 182.408C886.253 181.894 887.564 181.248 888.8 180.548C896.256 176.926 904.879 169.563 910.765 165.678C927.203 154.857 956.06 163.676 975.212 185.395C994.355 207.104 996.553 233.487 980.104 244.319Z" fill="#6672A3"/>
<path d="M932.106 182.923C930.288 179.082 932.397 174.706 936.817 173.119C941.25 171.544 946.29 173.382 948.108 177.222C949.921 181.063 947.817 185.45 943.392 187.026C938.965 188.602 933.921 186.763 932.106 182.923ZM933.104 208.384C928.684 209.96 923.634 208.121 921.825 204.292C920.008 200.451 922.117 196.064 926.537 194.477C930.962 192.902 936.009 194.74 937.825 198.58C939.646 202.421 937.532 206.798 933.104 208.384ZM887.766 224.441L877.173 228.216L881.516 237.422C882.351 239.173 881.38 241.191 879.359 241.916L870.877 244.938C868.844 245.658 866.53 244.816 865.699 243.054L861.352 233.854L850.761 237.63C848.733 238.35 846.411 237.511 845.578 235.751L842.102 228.388C841.272 226.626 842.238 224.613 844.268 223.895L854.861 220.119L850.518 210.923C849.678 209.161 850.652 207.137 852.678 206.426L861.156 203.406C863.188 202.673 865.507 203.526 866.336 205.288L870.683 214.479L881.275 210.704C883.307 209.982 885.624 210.824 886.452 212.586L889.933 219.95C890.761 221.711 889.797 223.72 887.766 224.441ZM980.252 176.642C961.1 154.923 932.242 146.104 915.804 156.925C909.919 160.81 901.296 168.173 893.84 171.795C892.604 172.495 891.291 173.141 889.851 173.655C888.481 174.137 887.102 174.476 885.735 174.739C877.591 176.675 865.568 176.631 858.313 177.43C838.064 179.64 824.965 203.504 829.048 230.72C833.125 257.94 852.849 278.196 873.083 275.98C888.197 274.329 899.28 260.601 902.271 242.453C908.214 241.513 914.243 240.037 920.26 237.895C926.344 235.726 931.754 232.727 936.8 229.748C953.708 240.743 972.875 243.636 985.144 235.566C1001.59 224.734 999.395 198.351 980.252 176.642ZM957.716 217.367C953.296 218.938 948.249 217.105 946.436 213.264C944.623 209.424 946.731 205.047 951.153 203.46C955.579 201.885 960.625 203.723 962.442 207.564C964.257 211.404 962.147 215.781 957.716 217.367ZM967.984 195.954C963.557 197.53 958.512 195.703 956.694 191.851C954.88 188.011 956.998 183.634 961.415 182.059C965.842 180.483 970.887 182.31 972.7 186.151C974.514 189.991 972.405 194.379 967.984 195.954Z" fill="#313131"/>
<path d="M1218.2 165.678C1212.32 169.563 1203.7 176.926 1196.24 180.548C1195 181.248 1193.69 181.894 1192.25 182.408C1190.88 182.89 1189.5 183.229 1188.13 183.491C1179.99 185.428 1167.97 185.384 1160.71 186.183C1140.46 188.393 1127.37 212.257 1131.45 239.473C1135.52 266.693 1155.25 286.949 1175.48 284.733C1190.6 283.081 1201.68 269.354 1204.67 251.206C1210.61 250.266 1216.64 248.79 1222.66 246.648C1228.74 244.479 1234.15 241.48 1239.2 238.501C1256.11 249.496 1275.27 252.389 1287.54 244.319C1303.99 233.487 1301.79 207.104 1282.65 185.395C1263.5 163.676 1234.64 154.857 1218.2 165.678Z" fill="#808BB8"/>
<path d="M1229.47 182.923C1227.65 179.082 1229.76 174.706 1234.18 173.119C1238.61 171.544 1243.65 173.382 1245.47 177.222C1247.28 181.063 1245.18 185.45 1240.75 187.026C1236.32 188.602 1231.28 186.763 1229.47 182.923ZM1230.46 208.384C1226.04 209.96 1220.99 208.121 1219.18 204.292C1217.37 200.451 1219.48 196.064 1223.9 194.477C1228.32 192.902 1233.37 194.74 1235.19 198.58C1237.01 202.421 1234.89 206.798 1230.46 208.384ZM1185.13 224.441L1174.53 228.216L1178.88 237.422C1179.71 239.173 1178.74 241.191 1176.72 241.916L1168.24 244.938C1166.2 245.658 1163.89 244.816 1163.06 243.054L1158.71 233.854L1148.12 237.63C1146.09 238.35 1143.77 237.511 1142.94 235.751L1139.46 228.388C1138.63 226.626 1139.6 224.613 1141.63 223.895L1152.22 220.119L1147.88 210.923C1147.04 209.161 1148.01 207.137 1150.04 206.426L1158.52 203.406C1160.55 202.673 1162.87 203.526 1163.7 205.288L1168.04 214.479L1178.64 210.704C1180.67 209.982 1182.98 210.824 1183.81 212.586L1187.29 219.95C1188.12 221.711 1187.16 223.72 1185.13 224.441ZM1277.61 176.642C1258.46 154.923 1229.6 146.104 1213.16 156.925C1207.28 160.81 1198.66 168.173 1191.2 171.795C1189.96 172.495 1188.65 173.141 1187.21 173.655C1185.84 174.137 1184.46 174.476 1183.09 174.739C1174.95 176.675 1162.93 176.631 1155.67 177.43C1135.42 179.64 1122.33 203.504 1126.41 230.72C1130.48 257.94 1150.21 278.196 1170.44 275.98C1185.56 274.329 1196.64 260.601 1199.63 242.453C1205.57 241.513 1211.6 240.037 1217.62 237.895C1223.7 235.726 1229.11 232.727 1234.16 229.748C1251.07 240.743 1270.23 243.636 1282.5 235.566C1298.95 224.734 1296.75 198.351 1277.61 176.642ZM1255.08 217.367C1250.66 218.938 1245.61 217.105 1243.8 213.264C1241.98 209.424 1244.09 205.047 1248.51 203.46C1252.94 201.885 1257.99 203.723 1259.8 207.564C1261.61 211.404 1259.51 215.781 1255.08 217.367ZM1265.34 195.954C1260.92 197.53 1255.87 195.703 1254.05 191.851C1252.24 188.011 1254.36 183.634 1258.78 182.059C1263.2 180.483 1268.25 182.31 1270.05 186.151C1271.87 189.991 1269.76 194.379 1265.34 195.954Z" fill="#313131"/>
<path d="M1577.49 185.395C1596.63 207.104 1598.83 233.487 1582.38 244.319C1570.11 252.389 1550.95 249.496 1534.04 238.501C1529 241.48 1523.58 244.479 1517.49 246.648C1511.48 248.79 1505.45 250.266 1499.51 251.206C1496.51 269.354 1485.44 283.081 1470.32 284.733C1450.08 286.949 1430.36 266.693 1426.28 239.473C1422.2 212.257 1435.3 188.393 1455.55 186.183C1462.81 185.384 1474.83 185.428 1482.97 183.491C1484.34 183.229 1485.73 182.901 1487.09 182.408C1488.54 181.894 1489.85 181.248 1491.08 180.548C1498.53 176.926 1507.16 169.563 1513.05 165.678C1529.48 154.857 1558.34 163.676 1577.49 185.395Z" fill="#808BB8"/>
<path d="M1534.39 182.923C1532.56 179.082 1534.68 174.706 1539.1 173.119C1543.53 171.544 1548.57 173.382 1550.39 177.222C1552.21 181.063 1550.1 185.45 1545.67 187.026C1541.24 188.602 1536.2 186.763 1534.39 182.923ZM1535.39 208.384C1530.96 209.96 1525.91 208.121 1524.11 204.292C1522.29 200.451 1524.4 196.064 1528.82 194.477C1533.24 192.902 1538.28 194.74 1540.11 198.58C1541.92 202.421 1539.81 206.798 1535.39 208.384ZM1490.05 224.441L1479.45 228.216L1483.8 237.422C1484.63 239.173 1483.66 241.191 1481.63 241.916L1473.15 244.938C1471.13 245.658 1468.81 244.816 1467.98 243.054L1463.63 233.854L1453.04 237.63C1451.02 238.35 1448.7 237.511 1447.85 235.751L1444.38 228.388C1443.56 226.626 1444.51 224.613 1446.54 223.895L1457.14 220.119L1452.79 210.923C1451.96 209.161 1452.93 207.137 1454.96 206.426L1463.44 203.406C1465.47 202.673 1467.79 203.526 1468.62 205.288L1472.97 214.479L1483.56 210.704C1485.59 209.982 1487.91 210.824 1488.73 212.586L1492.22 219.95C1493.04 221.711 1492.08 223.72 1490.05 224.441ZM1582.53 176.642C1563.38 154.923 1534.52 146.104 1518.09 156.925C1512.2 160.81 1503.57 168.173 1496.12 171.795C1494.89 172.495 1493.58 173.141 1492.13 173.655C1490.77 174.148 1489.38 174.476 1488.01 174.739C1479.87 176.675 1467.85 176.631 1460.59 177.43C1440.34 179.64 1427.24 203.504 1431.32 230.72C1435.4 257.94 1455.12 278.196 1475.36 275.98C1490.48 274.329 1501.55 260.601 1504.55 242.453C1510.49 241.513 1516.52 240.037 1522.53 237.895C1528.62 235.726 1534.04 232.727 1539.08 229.748C1555.99 240.743 1575.15 243.636 1587.42 235.566C1603.87 224.734 1601.67 198.351 1582.53 176.642ZM1559.99 217.367C1555.57 218.938 1550.53 217.105 1548.72 213.264C1546.9 209.424 1549.01 205.047 1553.43 203.46C1557.86 201.885 1562.9 203.723 1564.72 207.564C1566.53 211.404 1564.43 215.781 1559.99 217.367ZM1570.26 195.954C1565.84 197.53 1560.79 195.703 1558.97 191.851C1557.16 188.011 1559.28 183.634 1563.7 182.059C1568.12 180.483 1573.17 182.31 1574.97 186.151C1576.79 189.991 1574.69 194.379 1570.26 195.954Z" fill="#313131"/>
<path d="M56.3471 409.242C39.005 432.19 38.7559 458.717 55.7644 468.492C68.4638 475.794 87.1734 471.659 103.065 459.59C108.277 462.243 113.957 464.536 120.128 466.317C126.369 468.117 132.723 468.905 138.787 469.502C143.354 487.412 155.717 500.455 171.079 501.283C191.683 502.38 209.827 481.126 211.604 453.83C213.384 426.519 198.124 403.493 177.535 402.393C170.153 402.01 158.086 402.713 149.712 401.241C148.248 401.072 146.772 400.817 145.296 400.387C143.888 399.987 142.592 399.456 141.358 398.881C133.726 395.744 124.642 388.904 118.547 385.395C101.528 375.612 73.6795 386.297 56.3471 409.242Z" fill="#808BB8"/>
<path d="M169.847 458.239C168.339 462.18 163.448 464.309 158.902 462.998C154.37 461.689 151.918 457.444 153.428 453.503C154.933 449.568 159.823 447.435 164.362 448.741C168.902 450.05 171.347 454.303 169.847 458.239ZM146.984 442.253C142.447 440.948 139.996 436.696 141.506 432.762C143.009 428.822 147.899 426.693 152.437 427.995C156.977 429.305 159.429 433.55 157.921 437.496C156.42 441.435 151.528 443.562 146.984 442.253ZM108.45 419.032L105.562 426.587C104.868 428.391 102.629 429.369 100.548 428.765L89.6815 425.632L86.0634 435.071C85.3823 436.871 83.1319 437.852 81.0544 437.258L72.3535 434.748C70.2716 434.144 69.1484 432.195 69.8414 430.389L73.4516 420.951L62.5846 417.818C60.5071 417.218 59.376 415.267 60.0651 413.46L62.9572 405.908C63.6502 404.103 65.8941 403.123 67.9726 403.728L78.8401 406.86L82.4523 397.425C83.1398 395.614 85.3901 394.638 87.4691 395.237L96.1621 397.749C98.248 398.349 99.3702 400.303 98.6777 402.106L95.0739 411.538L105.942 414.671C108.02 415.277 109.148 417.225 108.45 419.032ZM172.495 393.438C165.113 393.055 153.046 393.758 144.672 392.286C143.208 392.116 141.732 391.863 140.256 391.432C138.848 391.032 137.552 390.501 136.318 389.926C128.686 386.789 119.603 379.949 113.508 376.44C96.4879 366.657 68.6395 377.341 51.3071 400.288C33.9649 423.236 33.7158 449.763 50.7243 459.536C63.4237 466.839 82.1333 462.704 98.0251 450.636C103.237 453.288 108.917 455.581 115.088 457.363C121.33 459.162 127.683 459.95 133.746 460.548C138.314 478.457 150.677 491.501 166.039 492.328C186.643 493.425 204.787 472.171 206.564 444.875C208.344 417.564 193.084 394.538 172.495 393.438ZM170.816 431.884C166.277 430.571 163.831 426.323 165.336 422.386C166.839 418.445 171.729 416.315 176.268 417.619C180.813 418.932 183.253 423.181 181.75 427.122C180.243 431.06 175.355 433.195 170.816 431.884ZM193.695 447.814C192.189 451.752 187.299 453.882 182.759 452.578C178.222 451.266 175.773 447.019 177.281 443.074C178.785 439.137 183.682 437.013 188.211 438.321C192.754 439.628 195.203 443.875 193.695 447.814Z" fill="#313131"/>
<path d="M450.61 469.502C444.548 468.905 438.194 468.117 431.952 466.317C425.782 464.536 420.102 462.243 414.889 459.59C398.998 471.659 380.288 475.794 367.589 468.492C350.58 458.717 350.829 432.19 368.172 409.242C385.503 386.297 413.352 375.612 430.372 385.395C436.466 388.904 445.55 395.744 453.183 398.881C454.415 399.456 455.714 399.982 457.12 400.387C458.598 400.813 460.073 401.071 461.537 401.241C469.909 402.713 481.976 402.01 489.36 402.393C509.947 403.493 525.207 426.519 523.429 453.83C521.65 481.126 503.507 502.38 482.902 501.283C467.541 500.455 455.177 487.412 450.61 469.502Z" fill="#808BB8"/>
<path d="M491.751 458.239C490.242 462.18 485.353 464.309 480.807 462.998C476.274 461.689 473.822 457.444 475.331 453.503C476.838 449.568 481.728 447.435 486.265 448.741C490.806 450.05 493.252 454.303 491.751 458.239ZM468.889 442.253C464.352 440.948 461.901 436.696 463.409 432.762C464.914 428.822 469.802 426.693 474.342 427.995C478.882 429.305 481.333 433.55 479.824 437.496C478.324 441.435 473.431 443.562 468.889 442.253ZM430.354 419.032L427.466 426.587C426.772 428.391 424.533 429.369 422.453 428.765L411.585 425.632L407.968 435.071C407.286 436.871 405.036 437.852 402.958 437.258L394.258 434.748C392.176 434.144 391.052 432.195 391.745 430.389L395.355 420.951L384.489 417.818C382.411 417.218 381.28 415.267 381.969 413.46L384.861 405.908C385.554 404.103 387.798 403.123 389.877 403.728L400.744 406.86L404.357 397.425C405.043 395.614 407.295 394.638 409.373 395.237L418.067 397.749C420.152 398.349 421.275 400.303 420.582 402.106L416.978 411.538L427.846 414.671C429.925 415.277 431.052 417.225 430.354 419.032ZM494.4 393.438C487.016 393.055 474.949 393.758 466.577 392.286C465.113 392.116 463.638 391.858 462.16 391.432C460.754 391.028 459.455 390.501 458.223 389.926C450.59 386.789 441.506 379.949 435.412 376.44C418.392 366.657 390.543 377.341 373.212 400.288C355.869 423.236 355.62 449.763 372.629 459.536C385.328 466.839 404.038 462.704 419.929 450.636C425.142 453.288 430.822 455.581 436.992 457.363C443.234 459.162 449.588 459.95 455.65 460.548C460.217 478.457 472.581 491.501 487.943 492.328C508.547 493.425 526.69 472.171 528.469 444.875C530.247 417.564 514.987 394.538 494.4 393.438ZM492.72 431.884C488.182 430.571 485.735 426.323 487.239 422.386C488.743 418.445 493.633 416.315 498.172 417.619C502.716 418.932 505.158 423.181 503.655 427.122C502.146 431.06 497.259 433.195 492.72 431.884ZM515.6 447.814C514.094 451.752 509.204 453.882 504.663 452.578C500.125 451.266 497.676 447.019 499.184 443.074C500.689 439.137 505.585 437.013 510.116 438.321C514.658 439.628 517.106 443.875 515.6 447.814Z" fill="#313131"/>
<path d="M689.492 468.492C702.192 475.794 720.901 471.659 736.794 459.59C742.005 462.243 747.685 464.536 753.857 466.317C760.097 468.117 766.452 468.905 772.515 469.502C777.082 487.412 789.445 500.455 804.807 501.283C825.411 502.38 843.555 481.126 845.333 453.83C847.112 426.519 831.852 403.493 811.264 402.393C803.881 402.01 791.814 402.713 783.44 401.241C781.976 401.072 780.503 400.813 779.024 400.387C777.619 399.982 776.32 399.456 775.086 398.881C767.455 395.744 758.37 388.904 752.275 385.395C735.257 375.612 707.408 386.297 690.075 409.242C672.733 432.19 672.483 458.717 689.492 468.492Z" fill="#808BB8"/>
<path d="M803.575 458.239C802.067 462.18 797.177 464.309 792.631 462.998C788.098 461.689 785.646 457.444 787.156 453.503C788.662 449.568 793.552 447.435 798.09 448.741C802.63 450.05 805.076 454.303 803.575 458.239ZM780.712 442.253C776.175 440.948 773.724 436.696 775.234 432.762C776.738 428.822 781.627 426.693 786.166 427.995C790.705 429.305 793.157 433.55 791.649 437.496C790.148 441.435 785.256 443.562 780.712 442.253ZM742.179 419.032L739.291 426.587C738.597 428.391 736.358 429.369 734.276 428.765L723.41 425.632L719.791 435.071C719.111 436.871 716.861 437.852 714.783 437.258L706.081 434.748C704 434.144 702.877 432.195 703.57 430.389L707.18 420.951L696.312 417.818C694.235 417.218 693.104 415.267 693.794 413.46L696.685 405.908C697.378 404.103 699.622 403.123 701.7 403.728L712.568 406.86L716.18 397.425C716.868 395.614 719.118 394.638 721.197 395.237L729.89 397.749C731.977 398.349 733.098 400.303 732.406 402.106L728.802 411.538L739.67 414.671C741.748 415.277 742.876 417.225 742.179 419.032ZM806.224 393.438C798.841 393.055 786.774 393.758 778.4 392.286C776.936 392.116 775.463 391.858 773.984 391.432C772.579 391.028 771.28 390.501 770.046 389.926C762.415 386.789 753.33 379.949 747.235 376.44C730.217 366.657 702.368 377.341 685.035 400.288C667.693 423.236 667.443 449.763 684.452 459.536C697.152 466.839 715.861 462.704 731.754 450.636C736.965 453.288 742.645 455.581 748.817 457.363C755.057 459.162 761.412 459.95 767.475 460.548C772.042 478.457 784.405 491.501 799.767 492.328C820.371 493.425 838.515 472.171 840.293 444.875C842.072 417.564 826.812 394.538 806.224 393.438ZM804.544 431.884C800.005 430.571 797.56 426.323 799.064 422.386C800.567 418.445 805.457 416.315 809.996 417.619C814.541 418.932 816.981 423.181 815.478 427.122C813.971 431.06 809.082 433.195 804.544 431.884ZM827.423 447.814C825.917 451.752 821.027 453.882 816.487 452.578C811.95 451.266 809.501 447.019 811.008 443.074C812.513 439.137 817.409 437.013 821.939 438.321C826.482 439.628 828.931 443.875 827.423 447.814Z" fill="#313131"/>
<path d="M1001.32 468.492C984.308 458.717 984.558 432.19 1001.9 409.242C1019.23 386.297 1047.08 375.612 1064.1 385.395C1070.2 388.904 1079.28 395.744 1086.91 398.881C1088.14 399.456 1089.44 399.982 1090.85 400.387C1092.33 400.813 1093.8 401.071 1095.27 401.241C1103.64 402.713 1115.7 402.01 1123.09 402.393C1143.68 403.493 1158.94 426.519 1157.16 453.83C1155.38 481.126 1137.24 502.38 1116.63 501.283C1101.27 500.455 1088.91 487.412 1084.34 469.502C1078.28 468.905 1071.92 468.117 1065.68 466.317C1059.51 464.536 1053.83 462.243 1048.62 459.59C1032.73 471.659 1014.02 475.794 1001.32 468.492Z" fill="#808BB8"/>
<path d="M1125.48 458.239C1123.97 462.18 1119.08 464.309 1114.54 462.998C1110 461.689 1107.55 457.444 1109.06 453.503C1110.57 449.568 1115.46 447.435 1119.99 448.741C1124.53 450.05 1126.98 454.303 1125.48 458.239ZM1102.62 442.253C1098.08 440.948 1095.63 436.696 1097.14 432.762C1098.64 428.822 1103.53 426.693 1108.07 427.995C1112.61 429.305 1115.06 433.55 1113.55 437.496C1112.05 441.435 1107.16 443.562 1102.62 442.253ZM1064.08 419.032L1061.19 426.587C1060.5 428.391 1058.26 429.369 1056.18 428.765L1045.31 425.632L1041.7 435.071C1041.01 436.871 1038.76 437.852 1036.69 437.258L1027.99 434.748C1025.9 434.144 1024.78 432.195 1025.47 430.389L1029.08 420.951L1018.22 417.818C1016.14 417.218 1015.01 415.267 1015.7 413.46L1018.59 405.908C1019.28 404.103 1021.53 403.123 1023.61 403.728L1034.47 406.86L1038.08 397.425C1038.77 395.614 1041.02 394.638 1043.1 395.237L1051.8 397.749C1053.88 398.349 1055 400.303 1054.31 402.106L1050.71 411.538L1061.57 414.671C1063.65 415.277 1064.78 417.225 1064.08 419.032ZM1128.13 393.438C1120.74 393.055 1108.68 393.758 1100.3 392.286C1098.84 392.116 1097.37 391.858 1095.89 391.432C1094.48 391.028 1093.18 390.501 1091.95 389.926C1084.32 386.789 1075.23 379.949 1069.14 376.44C1052.12 366.657 1024.27 377.341 1006.94 400.288C989.598 423.236 989.348 449.763 1006.36 459.536C1019.06 466.839 1037.77 462.704 1053.66 450.636C1058.87 453.288 1064.55 455.581 1070.72 457.363C1076.96 459.162 1083.32 459.95 1089.38 460.548C1093.95 478.457 1106.31 491.501 1121.67 492.328C1142.28 493.425 1160.42 472.171 1162.2 444.875C1163.98 417.564 1148.72 394.538 1128.13 393.438ZM1126.45 431.884C1121.91 430.571 1119.46 426.323 1120.97 422.386C1122.47 418.445 1127.36 416.315 1131.9 417.619C1136.44 418.932 1138.89 423.181 1137.38 427.122C1135.87 431.06 1130.99 433.195 1126.45 431.884ZM1149.33 447.814C1147.82 451.752 1142.93 453.882 1138.39 452.578C1133.85 451.266 1131.4 447.019 1132.91 443.074C1134.42 439.137 1139.31 437.013 1143.84 438.321C1148.39 439.628 1150.83 443.875 1149.33 447.814Z" fill="#313131"/>
<path d="M1323.23 468.492C1335.92 475.794 1354.63 471.659 1370.53 459.59C1375.73 462.243 1381.41 464.536 1387.59 466.317C1393.82 468.117 1400.18 468.905 1406.25 469.502C1410.81 487.412 1423.17 500.455 1438.53 501.283C1459.14 502.38 1477.29 481.126 1479.06 453.83C1480.84 426.519 1465.58 403.493 1444.99 402.393C1437.61 402.01 1425.54 402.713 1417.17 401.241C1415.71 401.071 1414.22 400.817 1412.75 400.387C1411.35 399.987 1410.05 399.456 1408.82 398.881C1401.18 395.744 1392.1 388.904 1386 385.395C1368.99 375.612 1341.13 386.297 1323.81 409.242C1306.46 432.19 1306.22 458.717 1323.23 468.492Z" fill="#808BB8"/>
<path d="M1437.31 458.239C1435.8 462.18 1430.91 464.309 1426.36 462.998C1421.82 461.689 1419.38 457.444 1420.89 453.503C1422.39 449.568 1427.28 447.435 1431.81 448.741C1436.36 450.05 1438.81 454.303 1437.31 458.239ZM1414.44 442.253C1409.9 440.948 1407.46 436.696 1408.96 432.762C1410.47 428.822 1415.36 426.693 1419.89 427.995C1424.43 429.305 1426.89 433.55 1425.38 437.496C1423.88 441.435 1418.99 443.562 1414.44 442.253ZM1375.91 419.032L1373.02 426.587C1372.33 428.391 1370.09 429.369 1368.01 428.765L1357.13 425.632L1353.52 435.071C1352.84 436.871 1350.59 437.852 1348.52 437.258L1339.81 434.748C1337.73 434.144 1336.61 432.195 1337.3 430.389L1340.9 420.951L1330.04 417.818C1327.96 417.218 1326.83 415.267 1327.52 413.46L1330.41 405.908C1331.1 404.103 1333.34 403.123 1335.42 403.728L1346.3 406.86L1349.91 397.425C1350.59 395.614 1352.85 394.638 1354.93 395.237L1363.62 397.749C1365.7 398.349 1366.82 400.303 1366.13 402.106L1362.53 411.538L1373.4 414.671C1375.48 415.277 1376.6 417.225 1375.91 419.032ZM1439.95 393.438C1432.57 393.055 1420.5 393.758 1412.13 392.286C1410.67 392.116 1409.18 391.863 1407.71 391.432C1406.31 391.032 1405.01 390.501 1403.78 389.926C1396.14 386.789 1387.06 379.949 1380.96 376.44C1363.95 366.657 1336.09 377.341 1318.77 400.288C1301.42 423.236 1301.18 449.763 1318.19 459.536C1330.88 466.839 1349.59 462.704 1365.49 450.636C1370.69 453.288 1376.37 455.581 1382.55 457.363C1388.78 459.162 1395.14 459.95 1401.21 460.548C1405.77 478.457 1418.13 491.501 1433.49 492.328C1454.1 493.425 1472.25 472.171 1474.02 444.875C1475.8 417.564 1460.54 394.538 1439.95 393.438ZM1438.28 431.884C1433.73 430.571 1431.28 426.323 1432.8 422.386C1434.3 418.445 1439.18 416.315 1443.72 417.619C1448.27 418.932 1450.71 423.181 1449.2 427.122C1447.7 431.06 1442.81 433.195 1438.28 431.884ZM1461.15 447.814C1459.65 451.752 1454.76 453.882 1450.21 452.578C1445.67 451.266 1443.23 447.019 1444.74 443.074C1446.24 439.137 1451.14 437.013 1455.67 438.321C1460.21 439.628 1462.66 443.875 1461.15 447.814Z" fill="#313131"/>
<path d="M177.535 -34.6745C170.153 -35.0574 158.086 -34.3572 149.712 -35.8233C148.248 -35.9984 146.772 -36.25 145.296 -36.6768C143.888 -37.0816 142.592 -37.6068 141.358 -38.1867C133.726 -41.327 124.643 -48.1655 118.548 -51.6777C101.528 -61.4596 73.6795 -50.7696 56.3476 -27.8249C39.0049 -4.88024 38.7558 21.6533 55.7643 31.4242C68.4637 38.7223 87.1733 34.5863 103.065 22.5177C108.277 25.1765 113.957 27.4633 120.128 29.2468C126.369 31.0522 132.723 31.84 138.786 32.4309C143.354 50.3424 155.717 63.3848 171.079 64.2164C191.683 65.3106 209.827 44.0618 211.604 16.7624C213.384 -10.548 198.124 -33.5803 177.535 -34.6745Z" fill="#808BB8"/>
<path d="M169.847 21.1719C168.339 25.1109 163.448 27.2445 158.902 25.9315C154.37 24.6185 151.918 20.3732 153.428 16.4342C154.933 12.4952 159.823 10.3725 164.362 11.6745C168.902 12.9875 171.347 17.2329 169.847 21.1719ZM146.984 5.18616C142.447 3.8841 139.996 -0.372225 141.506 -4.30028C143.009 -8.25022 147.899 -10.373 152.437 -9.07091C156.977 -7.75791 159.429 -3.51246 157.921 0.426538C156.42 4.36554 151.528 6.49916 146.984 5.18616ZM108.45 -18.0321L105.562 -10.4823C104.868 -8.67695 102.629 -7.7032 100.548 -8.305L89.6815 -11.4343L86.0634 -1.99163C85.3823 -0.197201 83.1319 0.787592 81.0544 0.1858L72.3535 -2.31988C70.2716 -2.92168 69.1484 -4.86927 69.8414 -6.67465L73.4516 -16.1173L62.5846 -19.2467C60.5071 -19.8485 59.376 -21.8069 60.0651 -23.6123L62.9572 -31.1621C63.6502 -32.9674 65.8941 -33.9413 67.9726 -33.3395L78.8401 -30.2101L82.4523 -39.6419C83.1398 -41.4582 85.3901 -42.432 87.4691 -41.8302L96.1621 -39.3136C98.248 -38.7228 99.3702 -36.7642 98.6777 -34.9589L95.0739 -25.5271L105.942 -22.3978C108.02 -21.796 109.148 -19.8374 108.45 -18.0321ZM172.495 -43.6247C165.113 -44.0076 153.046 -43.3073 144.672 -44.7844C143.208 -44.9486 141.732 -45.2002 140.256 -45.6379C138.848 -46.0318 137.552 -46.5679 136.318 -47.1369C128.686 -50.2772 119.603 -57.1157 113.508 -60.628C96.4879 -70.4098 68.6395 -59.7307 51.3071 -36.7751C33.9649 -13.8305 33.7158 12.6921 50.7243 22.463C63.4237 29.772 82.1333 25.6361 98.0251 13.5674C103.237 16.2153 108.917 18.5131 115.088 20.2966C121.33 22.091 127.683 22.8788 133.746 23.4805C138.314 41.392 150.677 54.4346 166.039 55.2552C186.643 56.3603 204.787 35.1007 206.564 7.81216C208.344 -19.4982 193.084 -42.5305 172.495 -43.6247ZM170.816 -5.18662C166.277 -6.49962 163.831 -10.745 165.336 -14.684C166.839 -18.623 171.729 -20.7566 176.268 -19.4436C180.813 -18.1306 183.253 -13.8852 181.75 -9.94625C180.243 -6.00725 175.355 -3.87362 170.816 -5.18662ZM193.695 10.7445C192.189 14.6835 187.299 16.8171 182.759 15.515C178.222 14.202 175.773 9.94579 177.281 6.00679C178.785 2.06779 183.682 -0.0549379 188.211 1.25806C192.754 2.56012 195.203 6.80551 193.695 10.7445Z" fill="#313131"/>
<path d="M482.902 64.2164C467.541 63.3848 455.177 50.3424 450.61 32.4309C444.548 31.84 438.194 31.0522 431.952 29.2468C425.782 27.4633 420.102 25.1765 414.889 22.5177C398.998 34.5863 380.288 38.7223 367.589 31.4242C350.58 21.6533 350.829 -4.88024 368.172 -27.8249C385.503 -50.7696 413.352 -61.4596 430.372 -51.6777C436.466 -48.1655 445.55 -41.327 453.183 -38.1867C454.415 -37.6068 455.714 -37.0816 457.12 -36.6768C458.598 -36.25 460.073 -35.9984 461.537 -35.8233C469.909 -34.3572 481.976 -35.0574 489.36 -34.6745C509.947 -33.5803 525.207 -10.548 523.429 16.7624C521.65 44.0618 503.507 65.3106 482.902 64.2164Z" fill="#808BB8"/>
<path d="M491.751 21.1719C490.242 25.1109 485.353 27.2445 480.807 25.9315C476.274 24.6185 473.822 20.3732 475.331 16.4342C476.838 12.4952 481.728 10.3725 486.265 11.6745C490.806 12.9875 493.252 17.2329 491.751 21.1719ZM468.889 5.18616C464.352 3.8841 461.901 -0.372225 463.409 -4.30028C464.914 -8.25022 469.802 -10.373 474.342 -9.07091C478.882 -7.75791 481.333 -3.51246 479.824 0.426538C478.324 4.36554 473.431 6.49916 468.889 5.18616ZM430.354 -18.0321L427.466 -10.4823C426.772 -8.67695 424.533 -7.7032 422.453 -8.305L411.585 -11.4343L407.968 -1.99163C407.286 -0.197201 405.036 0.787592 402.958 0.1858L394.258 -2.31988C392.176 -2.92168 391.052 -4.86927 391.745 -6.67465L395.355 -16.1173L384.489 -19.2467C382.411 -19.8485 381.28 -21.8069 381.969 -23.6123L384.861 -31.1621C385.554 -32.9674 387.798 -33.9413 389.877 -33.3395L400.744 -30.2101L404.357 -39.6419C405.043 -41.4582 407.295 -42.432 409.373 -41.8302L418.067 -39.3136C420.152 -38.7228 421.275 -36.7642 420.582 -34.9589L416.978 -25.5271L427.846 -22.3978C429.925 -21.796 431.052 -19.8374 430.354 -18.0321ZM494.4 -43.6247C487.016 -44.0076 474.949 -43.3073 466.577 -44.7844C465.113 -44.9486 463.638 -45.2111 462.16 -45.6379C460.754 -46.0427 459.455 -46.5679 458.223 -47.1369C450.59 -50.2772 441.506 -57.1157 435.412 -60.628C418.392 -70.4098 390.543 -59.7307 373.212 -36.7751C355.869 -13.8305 355.62 12.6921 372.629 22.463C385.328 29.772 404.038 25.6361 419.929 13.5674C425.142 16.2153 430.822 18.5131 436.992 20.2966C443.234 22.091 449.588 22.8788 455.65 23.4805C460.217 41.392 472.581 54.4346 487.943 55.2552C508.547 56.3603 526.69 35.1007 528.469 7.81216C530.247 -19.4982 514.987 -42.5305 494.4 -43.6247ZM492.72 -5.18662C488.182 -6.49962 485.735 -10.745 487.239 -14.684C488.743 -18.623 493.633 -20.7566 498.172 -19.4436C502.716 -18.1306 505.158 -13.8852 503.655 -9.94625C502.146 -6.00725 497.259 -3.87362 492.72 -5.18662ZM515.6 10.7445C514.094 14.6835 509.204 16.8171 504.663 15.515C500.125 14.202 497.676 9.94579 499.184 6.00679C500.689 2.06779 505.585 -0.0549379 510.116 1.25806C514.658 2.56012 517.106 6.80551 515.6 10.7445Z" fill="#313131"/>
<path d="M689.492 31.4242C702.192 38.7223 720.901 34.5863 736.794 22.5177C742.005 25.1765 747.685 27.4633 753.857 29.2468C760.097 31.0522 766.452 31.84 772.515 32.4309C777.082 50.3424 789.445 63.3848 804.807 64.2164C825.411 65.3106 843.555 44.0618 845.333 16.7624C847.112 -10.548 831.852 -33.5803 811.264 -34.6745C803.881 -35.0574 791.814 -34.3572 783.44 -35.8233C781.976 -35.9984 780.503 -36.25 779.024 -36.6768C777.619 -37.0816 776.32 -37.6068 775.086 -38.1867C767.455 -41.327 758.37 -48.1655 752.275 -51.6777C735.257 -61.4596 707.408 -50.7696 690.075 -27.8249C672.733 -4.88024 672.483 21.6533 689.492 31.4242Z" fill="#808BB8"/>
<path d="M803.575 21.1719C802.067 25.1109 797.177 27.2445 792.631 25.9315C788.098 24.6185 785.646 20.3732 787.156 16.4342C788.662 12.4952 793.552 10.3725 798.09 11.6745C802.63 12.9875 805.076 17.2329 803.575 21.1719ZM780.712 5.18616C776.175 3.8841 773.724 -0.372225 775.234 -4.30028C776.738 -8.25022 781.627 -10.373 786.166 -9.07091C790.705 -7.75791 793.157 -3.51246 791.649 0.426538C790.148 4.36554 785.256 6.49916 780.712 5.18616ZM742.179 -18.0321L739.291 -10.4823C738.597 -8.67695 736.358 -7.7032 734.276 -8.305L723.41 -11.4343L719.791 -1.99163C719.111 -0.197201 716.861 0.787592 714.783 0.1858L706.081 -2.31988C704 -2.92168 702.877 -4.86927 703.57 -6.67465L707.18 -16.1173L696.312 -19.2467C694.235 -19.8485 693.104 -21.8069 693.794 -23.6123L696.685 -31.1621C697.378 -32.9674 699.622 -33.9413 701.7 -33.3395L712.568 -30.2101L716.18 -39.6419C716.868 -41.4582 719.118 -42.432 721.197 -41.8302L729.89 -39.3136C731.977 -38.7228 733.098 -36.7642 732.406 -34.9589L728.802 -25.5271L739.67 -22.3978C741.748 -21.796 742.876 -19.8374 742.179 -18.0321ZM806.224 -43.6247C798.841 -44.0076 786.774 -43.3073 778.4 -44.7844C776.936 -44.9486 775.463 -45.2111 773.984 -45.6379C772.579 -46.0427 771.28 -46.5679 770.046 -47.1369C762.415 -50.2772 753.33 -57.1157 747.235 -60.628C730.217 -70.4098 702.368 -59.7307 685.035 -36.7751C667.693 -13.8305 667.443 12.6921 684.452 22.463C697.152 29.772 715.861 25.6361 731.754 13.5674C736.965 16.2153 742.645 18.5131 748.817 20.2966C755.057 22.091 761.412 22.8788 767.475 23.4805C772.042 41.392 784.405 54.4346 799.767 55.2552C820.371 56.3603 838.515 35.1007 840.293 7.81216C842.072 -19.4982 826.812 -42.5305 806.224 -43.6247ZM804.544 -5.18662C800.005 -6.49962 797.56 -10.745 799.064 -14.684C800.567 -18.623 805.457 -20.7566 809.996 -19.4436C814.541 -18.1306 816.981 -13.8852 815.478 -9.94625C813.971 -6.00725 809.082 -3.87362 804.544 -5.18662ZM827.423 10.7445C825.917 14.6835 821.027 16.8171 816.487 15.515C811.95 14.202 809.501 9.94579 811.008 6.00679C812.513 2.06779 817.409 -0.0549379 821.939 1.25806C826.482 2.56012 828.931 6.80551 827.423 10.7445Z" fill="#313131"/>
<path d="M1116.63 64.2164C1101.27 63.3848 1088.91 50.3424 1084.34 32.4309C1078.28 31.84 1071.92 31.0522 1065.68 29.2468C1059.51 27.4633 1053.83 25.1765 1048.62 22.5177C1032.73 34.5863 1014.02 38.7223 1001.32 31.4242C984.308 21.6533 984.558 -4.88024 1001.9 -27.8249C1019.23 -50.7696 1047.08 -61.4596 1064.1 -51.6777C1070.2 -48.1655 1079.28 -41.327 1086.91 -38.1867C1088.14 -37.6068 1089.44 -37.0816 1090.85 -36.6768C1092.33 -36.25 1093.8 -35.9984 1095.27 -35.8233C1103.64 -34.3572 1115.7 -35.0574 1123.09 -34.6745C1143.68 -33.5803 1158.94 -10.548 1157.16 16.7624C1155.38 44.0618 1137.24 65.3106 1116.63 64.2164Z" fill="#808BB8"/>
<path d="M1125.48 21.1719C1123.97 25.1109 1119.08 27.2445 1114.54 25.9315C1110 24.6185 1107.55 20.3732 1109.06 16.4342C1110.57 12.4952 1115.46 10.3725 1119.99 11.6745C1124.53 12.9875 1126.98 17.2329 1125.48 21.1719ZM1102.62 5.18616C1098.08 3.8841 1095.63 -0.372225 1097.14 -4.30028C1098.64 -8.25022 1103.53 -10.373 1108.07 -9.07091C1112.61 -7.75791 1115.06 -3.51246 1113.55 0.426538C1112.05 4.36554 1107.16 6.49916 1102.62 5.18616ZM1064.08 -18.0321L1061.19 -10.4823C1060.5 -8.67695 1058.26 -7.7032 1056.18 -8.305L1045.31 -11.4343L1041.7 -1.99163C1041.01 -0.197201 1038.76 0.787592 1036.69 0.1858L1027.99 -2.31988C1025.9 -2.92168 1024.78 -4.86927 1025.47 -6.67465L1029.08 -16.1173L1018.22 -19.2467C1016.14 -19.8485 1015.01 -21.8069 1015.7 -23.6123L1018.59 -31.1621C1019.28 -32.9674 1021.53 -33.9413 1023.61 -33.3395L1034.47 -30.2101L1038.08 -39.6419C1038.77 -41.4582 1041.02 -42.432 1043.1 -41.8302L1051.8 -39.3136C1053.88 -38.7228 1055 -36.7642 1054.31 -34.9589L1050.71 -25.5271L1061.57 -22.3978C1063.65 -21.796 1064.78 -19.8374 1064.08 -18.0321ZM1128.13 -43.6247C1120.74 -44.0076 1108.68 -43.3073 1100.3 -44.7844C1098.84 -44.9486 1097.37 -45.2111 1095.89 -45.6379C1094.48 -46.0427 1093.18 -46.5679 1091.95 -47.1369C1084.32 -50.2772 1075.23 -57.1157 1069.14 -60.628C1052.12 -70.4098 1024.27 -59.7307 1006.94 -36.7751C989.598 -13.8305 989.348 12.6921 1006.36 22.463C1019.06 29.772 1037.77 25.6361 1053.66 13.5674C1058.87 16.2153 1064.55 18.5131 1070.72 20.2966C1076.96 22.091 1083.32 22.8788 1089.38 23.4805C1093.95 41.392 1106.31 54.4346 1121.67 55.2552C1142.28 56.3603 1160.42 35.1007 1162.2 7.81216C1163.98 -19.4982 1148.72 -42.5305 1128.13 -43.6247ZM1126.45 -5.18662C1121.91 -6.49962 1119.46 -10.745 1120.97 -14.684C1122.47 -18.623 1127.36 -20.7566 1131.9 -19.4436C1136.44 -18.1306 1138.89 -13.8852 1137.38 -9.94625C1135.87 -6.00725 1130.99 -3.87362 1126.45 -5.18662ZM1149.33 10.7445C1147.82 14.6835 1142.93 16.8171 1138.39 15.515C1133.85 14.202 1131.4 9.94579 1132.91 6.00679C1134.42 2.06779 1139.31 -0.0549379 1143.84 1.25806C1148.39 2.56012 1150.83 6.80551 1149.33 10.7445Z" fill="#313131"/>
<path d="M1323.23 31.4242C1335.92 38.7223 1354.63 34.5863 1370.53 22.5177C1375.73 25.1765 1381.41 27.4633 1387.59 29.2468C1393.82 31.0522 1400.18 31.84 1406.25 32.4309C1410.81 50.3424 1423.17 63.3848 1438.53 64.2164C1459.14 65.3106 1477.29 44.0618 1479.06 16.7624C1480.84 -10.548 1465.58 -33.5803 1444.99 -34.6745C1437.61 -35.0574 1425.54 -34.3572 1417.17 -35.8233C1415.71 -35.9984 1414.22 -36.25 1412.75 -36.6768C1411.35 -37.0816 1410.05 -37.6068 1408.82 -38.1867C1401.18 -41.327 1392.1 -48.1655 1386 -51.6777C1368.99 -61.4596 1341.13 -50.7696 1323.81 -27.8249C1306.46 -4.88024 1306.22 21.6533 1323.23 31.4242Z" fill="#808BB8"/>
<path d="M1437.31 21.1719C1435.8 25.1109 1430.91 27.2445 1426.36 25.9315C1421.82 24.6185 1419.38 20.3732 1420.89 16.4342C1422.39 12.4952 1427.28 10.3725 1431.81 11.6745C1436.36 12.9875 1438.81 17.2329 1437.31 21.1719ZM1414.44 5.18616C1409.9 3.8841 1407.46 -0.372225 1408.96 -4.30028C1410.47 -8.25022 1415.36 -10.373 1419.89 -9.07091C1424.43 -7.75791 1426.89 -3.51246 1425.38 0.426538C1423.88 4.36554 1418.99 6.49916 1414.44 5.18616ZM1375.91 -18.0321L1373.02 -10.4823C1372.33 -8.67695 1370.09 -7.7032 1368.01 -8.305L1357.13 -11.4343L1353.52 -1.99163C1352.84 -0.197201 1350.59 0.787592 1348.52 0.1858L1339.81 -2.31988C1337.73 -2.92168 1336.61 -4.86927 1337.3 -6.67465L1340.9 -16.1173L1330.04 -19.2467C1327.96 -19.8485 1326.83 -21.8069 1327.52 -23.6123L1330.41 -31.1621C1331.1 -32.9674 1333.34 -33.9413 1335.42 -33.3395L1346.3 -30.2101L1349.91 -39.6419C1350.59 -41.4582 1352.85 -42.432 1354.93 -41.8302L1363.62 -39.3136C1365.7 -38.7228 1366.82 -36.7642 1366.13 -34.9589L1362.53 -25.5271L1373.4 -22.3978C1375.48 -21.796 1376.6 -19.8374 1375.91 -18.0321ZM1439.95 -43.6247C1432.57 -44.0076 1420.5 -43.3073 1412.13 -44.7844C1410.67 -44.9486 1409.18 -45.2002 1407.71 -45.6379C1406.31 -46.0318 1405.01 -46.5679 1403.78 -47.1369C1396.14 -50.2772 1387.06 -57.1157 1380.96 -60.628C1363.95 -70.4098 1336.09 -59.7307 1318.77 -36.7751C1301.42 -13.8305 1301.18 12.6921 1318.19 22.463C1330.88 29.772 1349.59 25.6361 1365.49 13.5674C1370.69 16.2153 1376.37 18.5131 1382.55 20.2966C1388.78 22.091 1395.14 22.8788 1401.21 23.4805C1405.77 41.392 1418.13 54.4346 1433.49 55.2552C1454.1 56.3603 1472.25 35.1007 1474.02 7.81216C1475.8 -19.4982 1460.54 -42.5305 1439.95 -43.6247ZM1438.28 -5.18662C1433.73 -6.49962 1431.28 -10.745 1432.8 -14.684C1434.3 -18.623 1439.18 -20.7566 1443.72 -19.4436C1448.27 -18.1306 1450.71 -13.8852 1449.2 -9.94625C1447.7 -6.00725 1442.81 -3.87362 1438.28 -5.18662ZM1461.15 10.7445C1459.65 14.6835 1454.76 16.8171 1450.21 15.515C1445.67 14.202 1443.23 9.94579 1444.74 6.00679C1446.24 2.06779 1451.14 -0.0549379 1455.67 1.25806C1460.21 2.56012 1462.66 6.80551 1461.15 10.7445Z" fill="#313131"/>
</g>
<defs>
<clipPath id="clip0_130_3">
<rect width="1512" height="1313" fill="white"/>
</clipPath>
</defs>
</svg>
