<svg width="24" height="24" viewBox="0 0 24 24" fill="none" xmlns="http://www.w3.org/2000/svg">
<path d="M18.2708 7.90898H7.9719C7.89714 7.90898 7.83172 7.88404 7.77564 7.83416C7.71957 7.78429 7.6853 7.72195 7.67284 7.64713L7.07472 4.5798C7.04979 4.40524 6.97503 4.26496 6.85042 4.15898C6.72581 4.05299 6.57628 4 6.40183 4H3.67289C3.48598 4 3.3271 4.06546 3.19626 4.19638C3.06542 4.32731 3 4.48628 3 4.67332V4.76683C3 4.95387 3.06542 5.11596 3.19626 5.25312C3.3271 5.39027 3.48598 5.45885 3.67289 5.45885H5.57941C5.62925 5.45885 5.67286 5.47444 5.71025 5.50561C5.74763 5.53678 5.77255 5.57731 5.78501 5.62718L7.69153 15.8017C7.72891 16.0387 7.85352 16.2132 8.06536 16.3254C8.16505 16.3878 8.27719 16.419 8.4018 16.419H8.71956C8.44542 16.7307 8.31458 17.0954 8.32704 17.5131C8.3395 17.9308 8.49526 18.283 8.79432 18.5698C9.09338 18.8566 9.45163 19 9.86907 19C10.2865 19 10.6479 18.8566 10.9532 18.5698C11.2585 18.283 11.4173 17.9308 11.4298 17.5131C11.4423 17.0954 11.3052 16.7307 11.0186 16.419H14.4952C14.2086 16.7307 14.0746 17.0954 14.0933 17.5131C14.112 17.9308 14.2709 18.283 14.57 18.5698C14.869 18.8566 15.2273 19 15.6447 19C16.0621 19 16.4204 18.8566 16.7195 18.5698C17.0185 18.283 17.1743 17.9308 17.1867 17.5131C17.1992 17.0954 17.0684 16.7307 16.7942 16.419H17.112C17.2989 16.419 17.4578 16.3535 17.5886 16.2226C17.7194 16.0916 17.7849 15.9327 17.7849 15.7456V15.596C17.7849 15.409 17.7163 15.25 17.5793 15.1191C17.4422 14.9882 17.2802 14.9227 17.0933 14.9227H9.26161C9.18684 14.9227 9.12142 14.8978 9.06535 14.8479C9.00927 14.798 8.975 14.7419 8.96254 14.6796L8.77563 13.6696C8.76317 13.5698 8.78809 13.4825 8.8504 13.4077C8.9127 13.3329 8.98747 13.3017 9.07469 13.3142H17.6727C17.8347 13.3142 17.9749 13.2643 18.0933 13.1646C18.2117 13.0648 18.2833 12.9339 18.3082 12.7718L18.925 8.67581C18.9624 8.47631 18.9157 8.29863 18.7849 8.14277C18.654 7.98691 18.4827 7.90898 18.2708 7.90898Z" fill="#F6EFEF"/>
</svg>
