<svg width="33" height="33" viewBox="0 0 33 33" fill="none" xmlns="http://www.w3.org/2000/svg">
<path d="M26.6191 10.186V6.48998C26.6191 4.11266 24.7224 2.1777 22.345 2.1777H10.6926C8.31521 2.1777 6.37951 4.11197 6.37951 6.48998V10.1853H1.87657C0.840215 10.1853 0 11.0255 0 12.0618V16.1411C0 17.1782 0.840215 18.0177 1.87657 18.0177H2.43579L4.48625 29.2817C4.64831 30.1734 5.42592 30.8216 6.33222 30.8216H26.706C27.613 30.8216 28.3892 30.1734 28.552 29.281L30.6011 18.0177H31.1227C32.1591 18.0177 32.9993 17.1782 32.9993 16.1411V12.0618C32.9993 11.0255 32.1591 10.1853 31.1227 10.1853L26.6191 10.186ZM9.85583 6.48998C9.85583 6.03649 10.2391 5.65395 10.6926 5.65395H22.3471C22.7999 5.65395 23.1442 6.03649 23.1442 6.48998V10.1853H9.85583V6.48998ZM12.4516 24.1153C12.4516 24.8366 11.875 25.4208 11.1537 25.4208C10.4331 25.4208 9.85583 24.8366 9.85583 24.1153V16.9486C9.85583 16.2274 10.4331 15.6438 11.1537 15.6438C11.8757 15.6438 12.4516 16.2288 12.4516 16.9486V24.1153ZM17.8198 24.1153C17.8198 24.8366 17.2425 25.4208 16.5219 25.4208C15.8013 25.4208 15.2233 24.8366 15.2233 24.1153V16.9486C15.2233 16.2274 15.8013 15.6438 16.5219 15.6438C17.2432 15.6438 17.8198 16.2288 17.8198 16.9486V24.1153ZM23.188 24.1153C23.188 24.8366 22.6107 25.4208 21.8908 25.4208C21.1695 25.4208 20.5922 24.8366 20.5922 24.1153V16.9486C20.5922 16.2274 21.1695 15.6438 21.8908 15.6438C22.6107 15.6438 23.188 16.2288 23.188 16.9486V24.1153Z" fill="#1C2936"/>
</svg>
