<svg width="24" height="24" viewBox="0 0 24 24" fill="none" xmlns="http://www.w3.org/2000/svg">
<path fill-rule="evenodd" clip-rule="evenodd" d="M7.80669 5C7.12695 4.99999 6.56593 4.99998 6.10918 5.03791C5.6347 5.07732 5.19884 5.16191 4.79055 5.374C4.18384 5.68916 3.68916 6.18384 3.374 6.79055C3.16191 7.19884 3.07732 7.6347 3.03791 8.10918C2.99998 8.56593 2.99999 9.12693 3 9.80668V14.9655C3 16.5548 4.11614 17.8834 5.60733 18.2103C5.92664 19.2179 6.86941 19.9483 7.98275 19.9483C9.06751 19.9483 9.99035 19.255 10.3324 18.2873H14.7682C15.1102 19.255 16.0331 19.9483 17.1178 19.9483C18.283 19.9483 19.2614 19.1484 19.5338 18.0677C20.5143 17.6243 21.1447 16.5668 20.9714 15.4228L20.8554 14.6577C20.5569 12.6874 19.819 10.8095 18.6964 9.16296L18.5457 8.9419C17.9269 8.03436 16.8996 7.49138 15.8011 7.49138H14.6264C14.5844 7.49138 14.5427 7.49294 14.5014 7.49601C14.4482 7.25116 14.3699 7.01663 14.2525 6.79055C13.9373 6.18384 13.4426 5.68916 12.8359 5.374C12.4276 5.16191 11.9917 5.07732 11.5173 5.03791C11.0605 4.99998 10.4995 4.99999 9.81974 5H7.80669ZM14.6264 9.74671C14.6264 9.76659 14.6264 9.78657 14.6264 9.80665V16.6264H14.7682C15.1102 15.6588 16.0331 14.9655 17.1178 14.9655C18.0222 14.9655 18.814 15.4474 19.2506 16.1684C19.3248 16.0209 19.3561 15.8494 19.3292 15.6716L19.2133 14.9065C18.952 13.1825 18.3064 11.5393 17.3241 10.0986L17.1734 9.87756C16.864 9.42379 16.3503 9.15229 15.8011 9.15229H14.6264V9.74671ZM12.9655 9.84157C12.9655 9.11823 12.9648 8.6265 12.9333 8.24664C12.9026 7.87673 12.8469 7.68789 12.7785 7.55619C12.6209 7.25284 12.3736 7.0055 12.0702 6.84791C11.9386 6.77951 11.7497 6.72385 11.3797 6.69313C10.9999 6.66158 10.5082 6.66092 9.78485 6.66092H7.84157C7.11823 6.66092 6.6265 6.66158 6.24664 6.69313C5.87673 6.72385 5.68789 6.77951 5.55619 6.84791C5.25284 7.0055 5.0055 7.25284 4.84791 7.55619C4.77951 7.68789 4.72385 7.87673 4.69313 8.24664C4.66158 8.6265 4.66092 9.11823 4.66092 9.84157V14.9655C4.66092 15.6561 5.08245 16.2483 5.68226 16.4988C6.05767 15.5984 6.94631 14.9655 7.98275 14.9655C9.06751 14.9655 9.99035 15.6588 10.3324 16.6264H12.9655V9.84157ZM8.81321 17.4569C8.81321 16.9982 8.44141 16.6264 7.98275 16.6264C7.52411 16.6264 7.15229 16.9982 7.15229 17.4569C7.15229 17.9155 7.52411 18.2873 7.98275 18.2873C8.44141 18.2873 8.81321 17.9155 8.81321 17.4569ZM16.2873 17.4569C16.2873 16.9982 16.6591 16.6264 17.1178 16.6264C17.5765 16.6264 17.9483 16.9982 17.9483 17.4569C17.9483 17.9155 17.5765 18.2873 17.1178 18.2873C16.6591 18.2873 16.2873 17.9155 16.2873 17.4569Z" fill="#032B11"/>
</svg>
