<svg width="60" height="60" viewBox="0 0 60 60" fill="none" xmlns="http://www.w3.org/2000/svg">
<path d="M22.1038 52.5C16.0383 52.5 10.3841 50.7358 5.625 47.6917C9.66561 47.9533 16.7964 47.3271 21.2317 43.0965C14.5595 42.7903 11.5505 37.6731 11.158 35.4863C11.7249 35.7049 14.4287 35.9674 15.955 35.355C8.27981 33.4305 7.10237 26.6949 7.36402 24.6394C8.80312 25.6453 11.2452 25.9952 12.2046 25.9076C5.05273 20.7904 7.62568 13.0927 8.89033 11.4307C14.0228 18.5413 21.7148 22.5349 31.2308 22.7569C31.0513 21.9701 30.9566 21.1508 30.9566 20.3092C30.9566 14.2705 35.8376 9.375 41.8588 9.375C45.0047 9.375 47.8395 10.7114 49.8294 12.8491C51.9317 12.3565 55.0956 11.2033 56.6423 10.206C55.8626 13.0052 53.4354 15.3403 51.9673 16.2058C51.9553 16.1762 51.9795 16.2352 51.9673 16.2058C53.2569 16.0107 56.7465 15.3401 58.125 14.4048C57.4432 15.9773 54.87 18.592 52.7582 20.0557C53.1512 37.3839 39.8934 52.5 22.1038 52.5Z" fill="#47ACDF"/>
</svg>
