<svg width="188" height="60" viewBox="0 0 188 60" fill="none" xmlns="http://www.w3.org/2000/svg">
<path d="M15.0004 15.0006V45.0014L45.0012 45.0014V15.0006L15.0004 15.0006ZM22.5006 37.5012L16.8758 30.001L22.5006 22.5008L30.0008 16.876L37.501 22.5008L43.1258 30.001L37.501 37.5012L30.0008 43.126L22.5006 37.5012Z" fill="#F1F1F1"/>
<path d="M30.0009 8.78711L8.78711 30.0009L30.0009 51.2146L51.2146 30.0009L30.0009 8.78711ZM19.394 30.0009L30.0009 19.394L40.6077 30.0009L30.0009 40.6077L19.394 30.0009Z" fill="#1C2936"/>
<path d="M61.8249 21.064H65.4409H65.7609V21.352C65.6329 21.48 65.5475 21.6187 65.5049 21.768C65.4835 21.9173 65.4729 22.1733 65.4729 22.536V38.056H74.6249V41H61.8249V21.064ZM84.6729 41.352C83.6062 41.352 82.6142 41.1813 81.6969 40.84C80.8009 40.4987 80.0115 40.008 79.3289 39.368C78.6675 38.7067 78.1555 37.896 77.7929 36.936C77.4302 35.976 77.2489 34.888 77.2489 33.672C77.2489 32.4347 77.4302 31.3253 77.7929 30.344C78.1555 29.3627 78.6462 28.5307 79.2649 27.848C79.9049 27.1653 80.6515 26.6533 81.5049 26.312C82.3582 25.9493 83.2755 25.768 84.2569 25.768C85.1315 25.768 85.9529 25.9173 86.7209 26.216C87.4889 26.5147 88.1609 26.9733 88.7369 27.592C89.3342 28.1893 89.8035 28.9467 90.1449 29.864C90.4862 30.76 90.6569 31.8053 90.6569 33C90.6569 33.2133 90.6462 33.4693 90.6249 33.768C90.6249 34.0667 90.6142 34.3227 90.5929 34.536H80.7369C80.7795 35.24 80.9182 35.848 81.1529 36.36C81.3875 36.8507 81.6969 37.256 82.0809 37.576C82.4649 37.896 82.8915 38.1413 83.3609 38.312C83.8302 38.4613 84.3209 38.536 84.8329 38.536C85.2809 38.536 85.7075 38.4933 86.1129 38.408C86.5395 38.3227 86.9342 38.1733 87.2969 37.96C87.6809 37.7467 88.0435 37.4693 88.3849 37.128L90.2409 38.92C89.7715 39.4747 89.2382 39.944 88.6409 40.328C88.0649 40.6907 87.4355 40.9467 86.7529 41.096C86.0915 41.2667 85.3982 41.352 84.6729 41.352ZM80.8009 31.816H87.1369C87.1369 31.304 87.0622 30.8453 86.9129 30.44C86.7849 30.0347 86.5929 29.6933 86.3369 29.416C86.0809 29.1387 85.7609 28.936 85.3769 28.808C85.0142 28.6587 84.5875 28.584 84.0969 28.584C83.6915 28.584 83.2969 28.648 82.9129 28.776C82.5502 28.8827 82.2195 29.0747 81.9209 29.352C81.6222 29.6293 81.3769 29.9707 81.1849 30.376C80.9929 30.7813 80.8649 31.2613 80.8009 31.816ZM98.5289 41L92.9289 26.12H96.7049L100.513 36.776H100.001L102.017 31.912C102.422 30.888 102.742 29.8853 102.977 28.904C103.233 27.9227 103.393 26.9947 103.457 26.12H106.849C106.742 27.0587 106.508 28.0507 106.145 29.096C105.804 30.1413 105.409 31.2187 104.961 32.328L101.377 41H98.5289ZM116.673 41.352C115.606 41.352 114.614 41.1813 113.697 40.84C112.801 40.4987 112.012 40.008 111.329 39.368C110.668 38.7067 110.156 37.896 109.793 36.936C109.43 35.976 109.249 34.888 109.249 33.672C109.249 32.4347 109.43 31.3253 109.793 30.344C110.156 29.3627 110.646 28.5307 111.265 27.848C111.905 27.1653 112.652 26.6533 113.505 26.312C114.358 25.9493 115.276 25.768 116.257 25.768C117.132 25.768 117.953 25.9173 118.721 26.216C119.489 26.5147 120.161 26.9733 120.737 27.592C121.334 28.1893 121.804 28.9467 122.145 29.864C122.486 30.76 122.657 31.8053 122.657 33C122.657 33.2133 122.646 33.4693 122.625 33.768C122.625 34.0667 122.614 34.3227 122.593 34.536H112.737C112.78 35.24 112.918 35.848 113.153 36.36C113.388 36.8507 113.697 37.256 114.081 37.576C114.465 37.896 114.892 38.1413 115.361 38.312C115.83 38.4613 116.321 38.536 116.833 38.536C117.281 38.536 117.708 38.4933 118.113 38.408C118.54 38.3227 118.934 38.1733 119.297 37.96C119.681 37.7467 120.044 37.4693 120.385 37.128L122.241 38.92C121.772 39.4747 121.238 39.944 120.641 40.328C120.065 40.6907 119.436 40.9467 118.753 41.096C118.092 41.2667 117.398 41.352 116.673 41.352ZM112.801 31.816H119.137C119.137 31.304 119.062 30.8453 118.913 30.44C118.785 30.0347 118.593 29.6933 118.337 29.416C118.081 29.1387 117.761 28.936 117.377 28.808C117.014 28.6587 116.588 28.584 116.097 28.584C115.692 28.584 115.297 28.648 114.913 28.776C114.55 28.8827 114.22 29.0747 113.921 29.352C113.622 29.6293 113.377 29.9707 113.185 30.376C112.993 30.7813 112.865 31.2613 112.801 31.816ZM126.017 41V38.152H130.209V22.376H126.209V19.528H133.857V38.152H138.017V41H126.017ZM164.001 41.416C161.804 41.416 160.108 40.7653 158.913 39.464C157.74 38.1413 157.153 36.328 157.153 34.024V21.064H160.737H161.025V21.352C160.918 21.48 160.844 21.6187 160.801 21.768C160.78 21.9173 160.769 22.1733 160.769 22.536V34.056C160.769 35.4213 161.004 36.4987 161.473 37.288C161.964 38.0773 162.817 38.472 164.033 38.472C165.27 38.472 166.134 38.0773 166.625 37.288C167.116 36.4773 167.361 35.368 167.361 33.96V21.064H170.881V33.928C170.881 35.6347 170.593 37.0427 170.017 38.152C169.441 39.2613 168.63 40.0827 167.585 40.616C166.561 41.1493 165.366 41.416 164.001 41.416ZM173.537 41V21.064H180.321C181.878 21.064 183.148 21.3307 184.129 21.864C185.132 22.3973 185.868 23.1013 186.337 23.976C186.828 24.8507 187.073 25.832 187.073 26.92C187.073 27.7093 186.934 28.456 186.657 29.16C186.401 29.8427 185.996 30.4507 185.441 30.984C184.908 31.496 184.225 31.9013 183.393 32.2C182.582 32.4987 181.612 32.648 180.481 32.648H177.217V41H173.537ZM177.217 29.64H180.225C180.908 29.64 181.484 29.5227 181.953 29.288C182.422 29.0533 182.774 28.7333 183.009 28.328C183.244 27.9227 183.361 27.4533 183.361 26.92C183.361 26.3867 183.244 25.9173 183.009 25.512C182.774 25.1067 182.422 24.7867 181.953 24.552C181.505 24.3173 180.94 24.2 180.257 24.2H177.217V29.64Z" fill="#F1F1F1"/>
</svg>
