<svg width="180" height="46" viewBox="0 0 180 46" fill="none" xmlns="http://www.w3.org/2000/svg">
<path d="M51.8249 14.064H55.4409H55.7609V14.352C55.6329 14.48 55.5475 14.6187 55.5049 14.768C55.4835 14.9173 55.4729 15.1733 55.4729 15.536V31.056H64.6249V34H51.8249V14.064ZM74.6729 34.352C73.6062 34.352 72.6142 34.1813 71.6969 33.84C70.8009 33.4987 70.0115 33.008 69.3289 32.368C68.6675 31.7067 68.1555 30.896 67.7929 29.936C67.4302 28.976 67.2489 27.888 67.2489 26.672C67.2489 25.4347 67.4302 24.3253 67.7929 23.344C68.1555 22.3627 68.6462 21.5307 69.2649 20.848C69.9049 20.1653 70.6515 19.6533 71.5049 19.312C72.3582 18.9493 73.2755 18.768 74.2569 18.768C75.1315 18.768 75.9529 18.9173 76.7209 19.216C77.4889 19.5147 78.1609 19.9733 78.7369 20.592C79.3342 21.1893 79.8035 21.9467 80.1449 22.864C80.4862 23.76 80.6569 24.8053 80.6569 26C80.6569 26.2133 80.6462 26.4693 80.6249 26.768C80.6249 27.0667 80.6142 27.3227 80.5929 27.536H70.7369C70.7795 28.24 70.9182 28.848 71.1529 29.36C71.3875 29.8507 71.6969 30.256 72.0809 30.576C72.4649 30.896 72.8915 31.1413 73.3609 31.312C73.8302 31.4613 74.3209 31.536 74.8329 31.536C75.2809 31.536 75.7075 31.4933 76.1129 31.408C76.5395 31.3227 76.9342 31.1733 77.2969 30.96C77.6809 30.7467 78.0435 30.4693 78.3849 30.128L80.2409 31.92C79.7715 32.4747 79.2382 32.944 78.6409 33.328C78.0649 33.6907 77.4355 33.9467 76.7529 34.096C76.0915 34.2667 75.3982 34.352 74.6729 34.352ZM70.8009 24.816H77.1369C77.1369 24.304 77.0622 23.8453 76.9129 23.44C76.7849 23.0347 76.5929 22.6933 76.3369 22.416C76.0809 22.1387 75.7609 21.936 75.3769 21.808C75.0142 21.6587 74.5875 21.584 74.0969 21.584C73.6915 21.584 73.2969 21.648 72.9129 21.776C72.5502 21.8827 72.2195 22.0747 71.9209 22.352C71.6222 22.6293 71.3769 22.9707 71.1849 23.376C70.9929 23.7813 70.8649 24.2613 70.8009 24.816ZM88.5289 34L82.9289 19.12H86.7049L90.5129 29.776H90.0009L92.0169 24.912C92.4222 23.888 92.7422 22.8853 92.9769 21.904C93.2329 20.9227 93.3929 19.9947 93.4569 19.12H96.8489C96.7422 20.0587 96.5075 21.0507 96.1449 22.096C95.8035 23.1413 95.4089 24.2187 94.9609 25.328L91.3769 34H88.5289ZM106.673 34.352C105.606 34.352 104.614 34.1813 103.697 33.84C102.801 33.4987 102.012 33.008 101.329 32.368C100.668 31.7067 100.156 30.896 99.7929 29.936C99.4302 28.976 99.2489 27.888 99.2489 26.672C99.2489 25.4347 99.4302 24.3253 99.7929 23.344C100.156 22.3627 100.646 21.5307 101.265 20.848C101.905 20.1653 102.652 19.6533 103.505 19.312C104.358 18.9493 105.276 18.768 106.257 18.768C107.132 18.768 107.953 18.9173 108.721 19.216C109.489 19.5147 110.161 19.9733 110.737 20.592C111.334 21.1893 111.804 21.9467 112.145 22.864C112.486 23.76 112.657 24.8053 112.657 26C112.657 26.2133 112.646 26.4693 112.625 26.768C112.625 27.0667 112.614 27.3227 112.593 27.536H102.737C102.78 28.24 102.918 28.848 103.153 29.36C103.388 29.8507 103.697 30.256 104.081 30.576C104.465 30.896 104.892 31.1413 105.361 31.312C105.83 31.4613 106.321 31.536 106.833 31.536C107.281 31.536 107.708 31.4933 108.113 31.408C108.54 31.3227 108.934 31.1733 109.297 30.96C109.681 30.7467 110.044 30.4693 110.385 30.128L112.241 31.92C111.772 32.4747 111.238 32.944 110.641 33.328C110.065 33.6907 109.436 33.9467 108.753 34.096C108.092 34.2667 107.398 34.352 106.673 34.352ZM102.801 24.816H109.137C109.137 24.304 109.062 23.8453 108.913 23.44C108.785 23.0347 108.593 22.6933 108.337 22.416C108.081 22.1387 107.761 21.936 107.377 21.808C107.014 21.6587 106.588 21.584 106.097 21.584C105.692 21.584 105.297 21.648 104.913 21.776C104.55 21.8827 104.22 22.0747 103.921 22.352C103.622 22.6293 103.377 22.9707 103.185 23.376C102.993 23.7813 102.865 24.2613 102.801 24.816ZM116.017 34V31.152H120.209V15.376H116.209V12.528H123.857V31.152H128.017V34H116.017ZM154.001 34.416C151.804 34.416 150.108 33.7653 148.913 32.464C147.74 31.1413 147.153 29.328 147.153 27.024V14.064H150.737H151.025V14.352C150.918 14.48 150.844 14.6187 150.801 14.768C150.78 14.9173 150.769 15.1733 150.769 15.536V27.056C150.769 28.4213 151.004 29.4987 151.473 30.288C151.964 31.0773 152.817 31.472 154.033 31.472C155.27 31.472 156.134 31.0773 156.625 30.288C157.116 29.4773 157.361 28.368 157.361 26.96V14.064H160.881V26.928C160.881 28.6347 160.593 30.0427 160.017 31.152C159.441 32.2613 158.63 33.0827 157.585 33.616C156.561 34.1493 155.366 34.416 154.001 34.416ZM163.537 34V14.064H170.321C171.878 14.064 173.148 14.3307 174.129 14.864C175.132 15.3973 175.868 16.1013 176.337 16.976C176.828 17.8507 177.073 18.832 177.073 19.92C177.073 20.7093 176.934 21.456 176.657 22.16C176.401 22.8427 175.996 23.4507 175.441 23.984C174.908 24.496 174.225 24.9013 173.393 25.2C172.582 25.4987 171.612 25.648 170.481 25.648H167.217V34H163.537ZM167.217 22.64H170.225C170.908 22.64 171.484 22.5227 171.953 22.288C172.422 22.0533 172.774 21.7333 173.009 21.328C173.244 20.9227 173.361 20.4533 173.361 19.92C173.361 19.3867 173.244 18.9173 173.009 18.512C172.774 18.1067 172.422 17.7867 171.953 17.552C171.505 17.3173 170.94 17.2 170.257 17.2H167.217V22.64Z" fill="#1C2936"/>
<path d="M8 8V38.0008L38.0008 38.0008V8L8 8ZM15.5002 30.5006L9.87541 23.0004L15.5002 15.5002L23.0004 9.87539L30.5006 15.5002L36.1254 23.0004L30.5006 30.5006L23.0004 36.1254L15.5002 30.5006Z" fill="#387FD4"/>
<path d="M23.2138 2L2 23.2138L23.2138 44.4275L44.4275 23.2138L23.2138 2ZM12.6069 23.2138L23.2138 12.6069L33.8206 23.2138L23.2138 33.8206L12.6069 23.2138Z" fill="#1C2936"/>
</svg>
